<svg width="441" height="117" viewBox="0 0 441 117" fill="none" xmlns="http://www.w3.org/2000/svg">
<rect x="4.5" y="4.91309" width="432" height="107.276" rx="16.3189" fill="url(#paint0_linear_11504_1587)"/>
<rect x="4.5" y="4.91309" width="432" height="107.276" rx="16.3189" stroke="url(#paint1_linear_11504_1587)" stroke-width="8"/>
<path d="M102.527 64.428C102.527 65.4161 102.399 66.3079 102.142 67.1035C101.898 67.8863 101.571 68.5792 101.16 69.1823C100.75 69.7854 100.268 70.2987 99.7166 70.7222C99.1648 71.1457 98.5938 71.4921 98.0035 71.7616C97.4132 72.0311 96.8101 72.23 96.1941 72.3583C95.591 72.4866 95.02 72.5508 94.481 72.5508H75.1749V67.5462H94.481C95.4435 67.5462 96.1877 67.2639 96.7138 66.6993C97.2528 66.1347 97.5223 65.3776 97.5223 64.428C97.5223 63.966 97.4517 63.5426 97.3105 63.1576C97.1694 62.7726 96.9641 62.439 96.6946 62.1567C96.438 61.8744 96.1171 61.6562 95.7322 61.5022C95.36 61.3482 94.943 61.2712 94.481 61.2712H82.9705C82.1621 61.2712 81.2895 61.1301 80.3527 60.8478C79.416 60.5526 78.5434 60.0843 77.735 59.4427C76.9394 58.801 76.2721 57.9605 75.7331 56.9211C75.207 55.8817 74.944 54.6113 74.944 53.1099C74.944 51.6086 75.207 50.3446 75.7331 49.318C76.2721 48.2786 76.9394 47.4381 77.735 46.7965C78.5434 46.142 79.416 45.6737 80.3527 45.3914C81.2895 45.0962 82.1621 44.9486 82.9705 44.9486H100.005V49.9532H82.9705C82.0209 49.9532 81.2767 50.2419 80.7377 50.8194C80.2116 51.3968 79.9485 52.1604 79.9485 53.1099C79.9485 54.0724 80.2116 54.8359 80.7377 55.4005C81.2767 55.9523 82.0209 56.2282 82.9705 56.2282H94.481H94.5195C95.0585 56.241 95.6295 56.318 96.2326 56.4592C96.8358 56.5875 97.4324 56.7928 98.0227 57.0751C98.6258 57.3574 99.1969 57.7167 99.7358 58.153C100.275 58.5765 100.75 59.0898 101.16 59.6929C101.584 60.296 101.917 60.9889 102.161 61.7717C102.405 62.5545 102.527 63.4399 102.527 64.428ZM134.19 56.4977C134.19 57.6397 134.049 58.6599 133.767 59.5581C133.485 60.4564 133.1 61.252 132.612 61.9449C132.137 62.625 131.585 63.2089 130.957 63.6965C130.328 64.1842 129.667 64.582 128.974 64.8899C128.294 65.1979 127.601 65.4225 126.895 65.5636C126.202 65.7048 125.548 65.7754 124.932 65.7754H113.614V60.7708H124.932C125.574 60.7195 126.151 60.5911 126.664 60.3858C127.19 60.1677 127.64 59.8789 128.012 59.5196C128.384 59.1603 128.673 58.7305 128.878 58.23C129.083 57.7167 129.186 57.1393 129.186 56.4977V54.2263C129.122 53.5976 128.987 53.0201 128.782 52.494C128.576 51.9679 128.294 51.5187 127.935 51.1466C127.588 50.7745 127.165 50.4858 126.664 50.2804C126.164 50.0623 125.586 49.9532 124.932 49.9532H113.652C112.985 49.9532 112.478 50.1264 112.132 50.4729C111.785 50.8194 111.612 51.3198 111.612 51.9743V72.5508H106.607V51.9743C106.607 50.6911 106.838 49.6003 107.3 48.7021C107.775 47.8038 108.359 47.0788 109.052 46.527C109.758 45.9752 110.521 45.5774 111.343 45.3336C112.164 45.077 112.921 44.9486 113.614 44.9486H124.932C126.061 44.9486 127.075 45.0962 127.973 45.3914C128.871 45.6737 129.661 46.0586 130.341 46.5463C131.034 47.021 131.618 47.5728 132.092 48.2016C132.58 48.8304 132.978 49.4913 133.286 50.1842C133.607 50.8643 133.838 51.5572 133.979 52.263C134.12 52.956 134.19 53.6104 134.19 54.2263V56.4977ZM166.066 54.2263C166.066 55.3684 165.925 56.3886 165.642 57.2868C165.36 58.1851 164.975 58.9807 164.487 59.6736C164.013 60.3537 163.461 60.9376 162.832 61.4252C162.203 61.9129 161.542 62.3171 160.849 62.6379C160.169 62.9459 159.476 63.1704 158.771 63.3116C158.078 63.4527 157.423 63.5233 156.807 63.5233L167.259 72.5508H159.521L149.089 63.5233H145.489V58.5187H156.807C157.436 58.4674 158.007 58.3391 158.52 58.1338C159.046 57.9156 159.496 57.6269 159.868 57.2676C160.253 56.9083 160.548 56.4784 160.753 55.9779C160.958 55.4647 161.061 54.8808 161.061 54.2263V51.0696C161.061 50.7873 161.023 50.5756 160.946 50.4344C160.881 50.2804 160.792 50.1714 160.676 50.1072C160.573 50.0302 160.458 49.9853 160.33 49.9725C160.214 49.9596 160.105 49.9532 160.002 49.9532H143.487V72.5508H138.483V47.4702C138.483 47.1237 138.547 46.7965 138.675 46.4885C138.804 46.1805 138.977 45.9111 139.195 45.6801C139.426 45.4491 139.695 45.2694 140.003 45.1411C140.311 45.0128 140.645 44.9486 141.004 44.9486H160.002C161.119 44.9486 162.062 45.154 162.832 45.5646C163.602 45.9624 164.224 46.4693 164.699 47.0852C165.187 47.6883 165.533 48.3428 165.738 49.0485C165.957 49.7543 166.066 50.4152 166.066 51.0311V54.2263ZM176.133 72.5508H171.128V44.9486H176.133V72.5508ZM209.567 70.4142C209.567 70.7735 209.496 71.1072 209.355 71.4151C209.227 71.7231 209.047 71.9926 208.816 72.2236C208.598 72.4417 208.335 72.6149 208.027 72.7433C207.719 72.8716 207.392 72.9357 207.045 72.9357C206.737 72.9357 206.423 72.878 206.102 72.7625C205.794 72.647 205.518 72.461 205.275 72.2043L186.989 53.1099V72.5508H181.984V47.0852C181.984 46.5719 182.125 46.11 182.408 45.6993C182.703 45.2759 183.075 44.9615 183.524 44.7562C183.999 44.5637 184.486 44.5188 184.987 44.6214C185.487 44.7112 185.917 44.9422 186.276 45.3144L204.562 64.3895V44.9486H209.567V70.4142ZM255.301 72.5508H250.296V65.7754H232.703V72.5508H227.699V58.7497C227.699 56.7351 228.045 54.8808 228.738 53.1869C229.431 51.4931 230.394 50.0366 231.626 48.8176C232.857 47.5985 234.314 46.6489 235.995 45.9688C237.676 45.2887 239.511 44.9486 241.5 44.9486H252.779C253.126 44.9486 253.453 45.0128 253.761 45.1411C254.069 45.2694 254.339 45.4491 254.57 45.6801C254.801 45.9111 254.98 46.1805 255.109 46.4885C255.237 46.7965 255.301 47.1237 255.301 47.4702V72.5508ZM232.703 60.7708H250.296V49.9532H241.5C241.346 49.9532 241.019 49.9789 240.518 50.0302C240.031 50.0687 239.46 50.1778 238.805 50.3574C238.164 50.5371 237.483 50.813 236.765 51.1851C236.046 51.5572 235.385 52.0705 234.782 52.725C234.179 53.3794 233.679 54.2007 233.281 55.1888C232.896 56.164 232.703 57.351 232.703 58.7497V60.7708ZM288.37 70.0292C288.37 70.3885 288.306 70.7222 288.177 71.0302C288.049 71.3381 287.869 71.6076 287.638 71.8386C287.42 72.0567 287.157 72.23 286.849 72.3583C286.541 72.4866 286.207 72.5508 285.848 72.5508H267.793C267.331 72.5508 266.831 72.4995 266.292 72.3968C265.766 72.2813 265.24 72.1081 264.713 71.8771C264.2 71.6461 263.706 71.351 263.231 70.9917C262.757 70.6195 262.333 70.1768 261.961 69.6635C261.602 69.1374 261.313 68.5343 261.095 67.8542C260.877 67.1612 260.768 66.3849 260.768 65.5251V51.9743C260.768 51.5123 260.819 51.0183 260.922 50.4922C261.037 49.9532 261.21 49.4271 261.441 48.9138C261.672 48.3877 261.974 47.8872 262.346 47.4124C262.718 46.9376 263.161 46.5206 263.674 46.1613C264.2 45.7892 264.803 45.494 265.483 45.2759C266.164 45.0577 266.933 44.9486 267.793 44.9486H288.139V49.9532H267.793C267.139 49.9532 266.638 50.1264 266.292 50.4729C265.945 50.8194 265.772 51.3327 265.772 52.0128V65.5251C265.772 66.1667 265.945 66.6672 266.292 67.0265C266.651 67.373 267.152 67.5462 267.793 67.5462H283.365V61.2712H270.045V56.2282H285.848C286.207 56.2282 286.541 56.2988 286.849 56.4399C287.157 56.5682 287.42 56.7479 287.638 56.9789C287.869 57.2098 288.049 57.4793 288.177 57.7873C288.306 58.0824 288.37 58.4032 288.37 58.7497V70.0292ZM320.668 72.5508H315.664V65.7754H298.071V72.5508H293.066V58.7497C293.066 56.7351 293.413 54.8808 294.106 53.1869C294.799 51.4931 295.761 50.0366 296.993 48.8176C298.225 47.5985 299.681 46.6489 301.362 45.9688C303.043 45.2887 304.878 44.9486 306.867 44.9486H318.147C318.493 44.9486 318.821 45.0128 319.129 45.1411C319.437 45.2694 319.706 45.4491 319.937 45.6801C320.168 45.9111 320.348 46.1805 320.476 46.4885C320.604 46.7965 320.668 47.1237 320.668 47.4702V72.5508ZM298.071 60.7708H315.664V49.9532H306.867C306.713 49.9532 306.386 49.9789 305.886 50.0302C305.398 50.0687 304.827 50.1778 304.173 50.3574C303.531 50.5371 302.851 50.813 302.132 51.1851C301.414 51.5572 300.753 52.0705 300.15 52.725C299.547 53.3794 299.046 54.2007 298.648 55.1888C298.263 56.164 298.071 57.351 298.071 58.7497V60.7708ZM331.544 72.5508H326.539V44.9486H331.544V72.5508ZM364.978 70.4142C364.978 70.7735 364.908 71.1072 364.766 71.4151C364.638 71.7231 364.458 71.9926 364.227 72.2236C364.009 72.4417 363.746 72.6149 363.438 72.7433C363.13 72.8716 362.803 72.9357 362.457 72.9357C362.149 72.9357 361.834 72.878 361.513 72.7625C361.205 72.647 360.93 72.461 360.686 72.2043L342.4 53.1099V72.5508H337.395V47.0852C337.395 46.5719 337.536 46.11 337.819 45.6993C338.114 45.2759 338.486 44.9615 338.935 44.7562C339.41 44.5637 339.898 44.5188 340.398 44.6214C340.898 44.7112 341.328 44.9422 341.688 45.3144L359.974 64.3895V44.9486H364.978V70.4142Z" fill="white"/>
<defs>
<linearGradient id="paint0_linear_11504_1587" x1="46.7049" y1="8.91309" x2="384.579" y2="123.906" gradientUnits="userSpaceOnUse">
<stop stop-color="#00047D"/>
<stop offset="1" stop-color="#0008CE"/>
</linearGradient>
<linearGradient id="paint1_linear_11504_1587" x1="-51.4293" y1="-33.3011" x2="487.715" y2="142.583" gradientUnits="userSpaceOnUse">
<stop stop-color="#000DFF"/>
<stop offset="0.505811" stop-color="#343EFF"/>
<stop offset="1" stop-color="white"/>
</linearGradient>
</defs>
</svg>
