<svg width="425" height="101" viewBox="0 0 425 101" fill="none" xmlns="http://www.w3.org/2000/svg">
<rect x="1.73189" y="2.14498" width="421.536" height="96.812" rx="11.0871" fill="url(#paint0_linear_11504_1587)"/>
<rect x="1.73189" y="2.14498" width="421.536" height="96.812" rx="11.0871" stroke="url(#paint1_linear_11504_1587)" stroke-width="2.46379"/>
<path d="M94.5268 56.428C94.5268 57.4161 94.3985 58.3079 94.1419 59.1035C93.8981 59.8863 93.5708 60.5792 93.1602 61.1823C92.7496 61.7854 92.2684 62.2987 91.7166 62.7222C91.1648 63.1457 90.5938 63.4921 90.0035 63.7616C89.4132 64.0311 88.8101 64.23 88.1941 64.3583C87.591 64.4866 87.02 64.5508 86.481 64.5508H67.1749V59.5462H86.481C87.4435 59.5462 88.1877 59.2639 88.7138 58.6993C89.2528 58.1347 89.5223 57.3776 89.5223 56.428C89.5223 55.966 89.4517 55.5426 89.3105 55.1576C89.1694 54.7726 88.9641 54.439 88.6946 54.1567C88.438 53.8744 88.1171 53.6562 87.7322 53.5022C87.36 53.3482 86.943 53.2712 86.481 53.2712H74.9705C74.1621 53.2712 73.2895 53.1301 72.3527 52.8478C71.416 52.5526 70.5434 52.0843 69.735 51.4427C68.9394 50.801 68.2721 49.9605 67.7331 48.9211C67.207 47.8817 66.944 46.6113 66.944 45.1099C66.944 43.6086 67.207 42.3446 67.7331 41.318C68.2721 40.2786 68.9394 39.4381 69.735 38.7965C70.5434 38.142 71.416 37.6737 72.3527 37.3914C73.2895 37.0962 74.1621 36.9486 74.9705 36.9486H92.0053V41.9532H74.9705C74.0209 41.9532 73.2767 42.2419 72.7377 42.8194C72.2116 43.3968 71.9485 44.1604 71.9485 45.1099C71.9485 46.0724 72.2116 46.8359 72.7377 47.4005C73.2767 47.9523 74.0209 48.2282 74.9705 48.2282H86.481H86.5195C87.0585 48.241 87.6295 48.318 88.2326 48.4592C88.8358 48.5875 89.4324 48.7928 90.0227 49.0751C90.6258 49.3574 91.1969 49.7167 91.7358 50.153C92.2748 50.5765 92.7496 51.0898 93.1602 51.6929C93.5837 52.296 93.9173 52.9889 94.1611 53.7717C94.4049 54.5545 94.5268 55.4399 94.5268 56.428ZM126.19 48.4977C126.19 49.6397 126.049 50.6599 125.767 51.5581C125.485 52.4564 125.1 53.252 124.612 53.9449C124.137 54.625 123.585 55.2089 122.957 55.6965C122.328 56.1842 121.667 56.582 120.974 56.8899C120.294 57.1979 119.601 57.4225 118.895 57.5636C118.202 57.7048 117.548 57.7754 116.932 57.7754H105.614V52.7708H116.932C117.574 52.7195 118.151 52.5911 118.664 52.3858C119.19 52.1677 119.64 51.8789 120.012 51.5196C120.384 51.1603 120.673 50.7305 120.878 50.23C121.083 49.7167 121.186 49.1393 121.186 48.4977V46.2263C121.122 45.5976 120.987 45.0201 120.782 44.494C120.576 43.9679 120.294 43.5187 119.935 43.1466C119.588 42.7745 119.165 42.4858 118.664 42.2804C118.164 42.0623 117.586 41.9532 116.932 41.9532H105.652C104.985 41.9532 104.478 42.1264 104.132 42.4729C103.785 42.8194 103.612 43.3198 103.612 43.9743V64.5508H98.6075V43.9743C98.6075 42.6911 98.8385 41.6003 99.3004 40.7021C99.7752 39.8038 100.359 39.0788 101.052 38.527C101.758 37.9752 102.521 37.5774 103.343 37.3336C104.164 37.077 104.921 36.9486 105.614 36.9486H116.932C118.061 36.9486 119.075 37.0962 119.973 37.3914C120.871 37.6737 121.661 38.0586 122.341 38.5463C123.034 39.021 123.618 39.5728 124.092 40.2016C124.58 40.8304 124.978 41.4913 125.286 42.1842C125.607 42.8643 125.838 43.5572 125.979 44.263C126.12 44.956 126.19 45.6104 126.19 46.2263V48.4977ZM158.066 46.2263C158.066 47.3684 157.925 48.3886 157.642 49.2868C157.36 50.1851 156.975 50.9807 156.487 51.6736C156.013 52.3537 155.461 52.9376 154.832 53.4252C154.203 53.9129 153.542 54.3171 152.849 54.6379C152.169 54.9459 151.476 55.1704 150.771 55.3116C150.078 55.4527 149.423 55.5233 148.807 55.5233L159.259 64.5508H151.521L141.089 55.5233H137.489V50.5187H148.807C149.436 50.4674 150.007 50.3391 150.52 50.1338C151.046 49.9156 151.496 49.6269 151.868 49.2676C152.253 48.9083 152.548 48.4784 152.753 47.9779C152.958 47.4647 153.061 46.8808 153.061 46.2263V43.0696C153.061 42.7873 153.023 42.5756 152.946 42.4344C152.881 42.2804 152.792 42.1714 152.676 42.1072C152.573 42.0302 152.458 41.9853 152.33 41.9725C152.214 41.9596 152.105 41.9532 152.002 41.9532H135.487V64.5508H130.483V39.4702C130.483 39.1237 130.547 38.7965 130.675 38.4885C130.804 38.1805 130.977 37.9111 131.195 37.6801C131.426 37.4491 131.695 37.2694 132.003 37.1411C132.311 37.0128 132.645 36.9486 133.004 36.9486H152.002C153.119 36.9486 154.062 37.154 154.832 37.5646C155.602 37.9624 156.224 38.4693 156.699 39.0852C157.187 39.6883 157.533 40.3428 157.738 41.0485C157.957 41.7543 158.066 42.4152 158.066 43.0311V46.2263ZM168.133 64.5508H163.128V36.9486H168.133V64.5508ZM201.567 62.4142C201.567 62.7735 201.496 63.1072 201.355 63.4151C201.227 63.7231 201.047 63.9926 200.816 64.2236C200.598 64.4417 200.335 64.6149 200.027 64.7433C199.719 64.8716 199.392 64.9357 199.045 64.9357C198.737 64.9357 198.423 64.878 198.102 64.7625C197.794 64.647 197.518 64.461 197.275 64.2043L178.989 45.1099V64.5508H173.984V39.0852C173.984 38.5719 174.125 38.11 174.408 37.6993C174.703 37.2759 175.075 36.9615 175.524 36.7562C175.999 36.5637 176.486 36.5188 176.987 36.6214C177.487 36.7112 177.917 36.9422 178.276 37.3144L196.562 56.3895V36.9486H201.567V62.4142ZM247.301 64.5508H242.296V57.7754H224.703V64.5508H219.699V50.7497C219.699 48.7351 220.045 46.8808 220.738 45.1869C221.431 43.4931 222.394 42.0366 223.626 40.8176C224.857 39.5985 226.314 38.6489 227.995 37.9688C229.676 37.2887 231.511 36.9486 233.5 36.9486H244.779C245.126 36.9486 245.453 37.0128 245.761 37.1411C246.069 37.2694 246.339 37.4491 246.57 37.6801C246.801 37.9111 246.98 38.1805 247.109 38.4885C247.237 38.7965 247.301 39.1237 247.301 39.4702V64.5508ZM224.703 52.7708H242.296V41.9532H233.5C233.346 41.9532 233.019 41.9789 232.518 42.0302C232.031 42.0687 231.46 42.1778 230.805 42.3574C230.164 42.5371 229.483 42.813 228.765 43.1851C228.046 43.5572 227.385 44.0705 226.782 44.725C226.179 45.3794 225.679 46.2007 225.281 47.1888C224.896 48.164 224.703 49.351 224.703 50.7497V52.7708ZM280.37 62.0292C280.37 62.3885 280.306 62.7222 280.177 63.0302C280.049 63.3381 279.869 63.6076 279.638 63.8386C279.42 64.0567 279.157 64.23 278.849 64.3583C278.541 64.4866 278.207 64.5508 277.848 64.5508H259.793C259.331 64.5508 258.831 64.4995 258.292 64.3968C257.766 64.2813 257.24 64.1081 256.713 63.8771C256.2 63.6461 255.706 63.351 255.231 62.9917C254.757 62.6195 254.333 62.1768 253.961 61.6635C253.602 61.1374 253.313 60.5343 253.095 59.8542C252.877 59.1612 252.768 58.3849 252.768 57.5251V43.9743C252.768 43.5123 252.819 43.0183 252.922 42.4922C253.037 41.9532 253.21 41.4271 253.441 40.9138C253.672 40.3877 253.974 39.8872 254.346 39.4124C254.718 38.9376 255.161 38.5206 255.674 38.1613C256.2 37.7892 256.803 37.494 257.483 37.2759C258.164 37.0577 258.933 36.9486 259.793 36.9486H280.139V41.9532H259.793C259.139 41.9532 258.638 42.1264 258.292 42.4729C257.945 42.8194 257.772 43.3327 257.772 44.0128V57.5251C257.772 58.1667 257.945 58.6672 258.292 59.0265C258.651 59.373 259.152 59.5462 259.793 59.5462H275.365V53.2712H262.045V48.2282H277.848C278.207 48.2282 278.541 48.2988 278.849 48.4399C279.157 48.5682 279.42 48.7479 279.638 48.9789C279.869 49.2098 280.049 49.4793 280.177 49.7873C280.306 50.0824 280.37 50.4032 280.37 50.7497V62.0292ZM312.668 64.5508H307.664V57.7754H290.071V64.5508H285.066V50.7497C285.066 48.7351 285.413 46.8808 286.106 45.1869C286.799 43.4931 287.761 42.0366 288.993 40.8176C290.225 39.5985 291.681 38.6489 293.362 37.9688C295.043 37.2887 296.878 36.9486 298.867 36.9486H310.147C310.493 36.9486 310.821 37.0128 311.129 37.1411C311.437 37.2694 311.706 37.4491 311.937 37.6801C312.168 37.9111 312.348 38.1805 312.476 38.4885C312.604 38.7965 312.668 39.1237 312.668 39.4702V64.5508ZM290.071 52.7708H307.664V41.9532H298.867C298.713 41.9532 298.386 41.9789 297.886 42.0302C297.398 42.0687 296.827 42.1778 296.173 42.3574C295.531 42.5371 294.851 42.813 294.132 43.1851C293.414 43.5572 292.753 44.0705 292.15 44.725C291.547 45.3794 291.046 46.2007 290.648 47.1888C290.263 48.164 290.071 49.351 290.071 50.7497V52.7708ZM323.544 64.5508H318.539V36.9486H323.544V64.5508ZM356.978 62.4142C356.978 62.7735 356.908 63.1072 356.766 63.4151C356.638 63.7231 356.458 63.9926 356.227 64.2236C356.009 64.4417 355.746 64.6149 355.438 64.7433C355.13 64.8716 354.803 64.9357 354.457 64.9357C354.149 64.9357 353.834 64.878 353.513 64.7625C353.205 64.647 352.93 64.461 352.686 64.2043L334.4 45.1099V64.5508H329.395V39.0852C329.395 38.5719 329.536 38.11 329.819 37.6993C330.114 37.2759 330.486 36.9615 330.935 36.7562C331.41 36.5637 331.898 36.5188 332.398 36.6214C332.898 36.7112 333.328 36.9422 333.688 37.3144L351.974 56.3895V36.9486H356.978V62.4142Z" fill="white"/>
<defs>
<linearGradient id="paint0_linear_11504_1587" x1="38.7049" y1="0.913085" x2="376.579" y2="115.906" gradientUnits="userSpaceOnUse">
<stop stop-color="#00047D"/>
<stop offset="1" stop-color="#0008CE"/>
</linearGradient>
<linearGradient id="paint1_linear_11504_1587" x1="-59.4293" y1="-41.3011" x2="479.715" y2="134.583" gradientUnits="userSpaceOnUse">
<stop stop-color="#000DFF"/>
<stop offset="0.505811" stop-color="#343EFF"/>
<stop offset="1" stop-color="white"/>
</linearGradient>
</defs>
</svg>
