<svg width="673" height="284" viewBox="0 0 673 284" fill="none" xmlns="http://www.w3.org/2000/svg">
<g filter="url(#filter0_d_11644_58659)">
<path d="M637.52 12.1272C643.624 12.1676 648.984 16.4512 650.165 22.5842L650.267 23.1838L650.765 26.6555C653.564 46.3822 660.73 100.502 660.73 138.156C660.73 178.313 652.579 237.201 650.268 253.12C649.329 259.58 643.809 264.145 637.499 264.176L38.1992 267.135C32.0244 267.165 26.5229 262.842 25.3828 256.53C22.5077 240.607 12.0391 179.892 12 138.163C11.9606 96.0728 22.4962 34.8096 25.3818 18.7932C26.5212 12.4698 32.0374 8.14216 38.2217 8.18286L637.52 12.1272Z" stroke="url(#paint0_linear_11644_58659)" stroke-width="16" shape-rendering="crispEdges"/>
</g>
<path d="M639.214 12.1252C645.78 12.1685 651.358 17.1051 652.042 23.7366L652.071 24.054L652.687 32.05C654.391 54.7177 657.73 103.525 657.73 138.156C657.73 177.726 653.37 235.808 652.071 252.249C651.534 259.047 645.873 264.145 639.193 264.178L40.1992 267.135C34.0244 267.165 28.5229 262.842 27.3828 256.53C24.5077 240.607 14.0391 179.892 14 138.163C13.9606 96.0728 24.4962 34.8096 27.3818 18.7932C28.5212 12.4698 34.0374 8.14216 40.2217 8.18286L639.214 12.1252Z" stroke="url(#paint1_linear_11644_58659)" stroke-width="16"/>
<path d="M333.945 20.601C489.946 20.9309 616.413 21.1034 616.416 19.7528C616.418 18.4021 489.957 16.0397 333.955 15.7099C177.954 15.38 51.4871 15.2075 51.4842 16.5581C51.4814 17.9088 177.943 20.2712 333.945 20.601Z" fill="url(#paint2_linear_11644_58659)"/>
<path d="M333.459 5.60104C489.457 6.67965 615.926 6.45913 615.935 5.10849C615.945 3.75786 489.495 4.78856 333.497 3.70995C177.499 2.63133 51.0255 -0.148142 51.0162 1.20249C51.0068 2.55313 177.461 4.52242 333.459 5.60104Z" fill="url(#paint3_linear_11644_58659)"/>
<path d="M333.461 17.6011C489.46 18.4927 615.929 18.1206 615.936 16.7699C615.944 15.4193 489.496 16.6015 333.497 15.7099C177.498 14.8183 51.0208 12.1905 51.0131 13.5411C51.0054 14.8918 177.462 16.7095 333.461 17.6011Z" fill="url(#paint4_linear_11644_58659)"/>
<ellipse cx="2.4456" cy="282.466" rx="2.4456" ry="282.466" transform="matrix(0.00506264 0.999987 0.999987 -0.00506256 58.7893 254.585)" fill="url(#paint5_linear_11644_58659)"/>
<path d="M21.6581 137.212C21.6581 206.096 34.5742 257.938 36.9379 257.938C39.3015 257.938 28.2177 206.096 28.2177 137.212C28.2177 68.3285 40.3016 16.4871 37.9379 16.4871C35.5742 16.4871 21.6581 68.3285 21.6581 137.212Z" fill="url(#paint6_linear_11644_58659)"/>
<path d="M653.731 138.399C653.731 205.589 643.231 256.156 640.925 256.156C638.619 256.156 648.308 205.589 648.308 138.399C648.308 71.209 638.644 20.6423 640.95 20.6423C643.255 20.6423 653.731 71.209 653.731 138.399Z" fill="url(#paint7_linear_11644_58659)"/>
<path d="M660.135 250C660.407 246.296 660.929 242.498 661.375 238.807C665.685 205.4 667.861 171.73 668.635 138.023L668.635 138C668.635 137.82 668.635 137.64 668.635 137.461C668.754 103.526 665.522 69.7013 660.715 36.2161C660.311 32.5275 659.772 28.7025 660.135 25C659.639 28.6928 660.051 32.5507 660.337 36.255C664.076 69.9148 666.752 103.614 666.635 137.462C666.635 137.641 666.635 137.821 666.635 138L666.635 137.977C665.868 171.645 664.238 205.248 660.997 238.767C660.67 242.47 660.274 246.287 660.135 250Z" fill="url(#paint8_linear_11644_58659)"/>
<path d="M15.9497 248.357C15.8398 244.429 15.0353 240.593 14.2768 236.716C6.77583 204.024 2.89649 170.416 3.01374 136.757L3.01399 136.735C3.053 134.907 3.10048 133.091 3.15597 131.288C4.29919 95.871 8.35715 60.5762 15.7229 25.9383C16.5582 22.1662 17.42 18.1853 18.5 14.5C17.5493 18.218 16.8125 22.2207 16.0955 26.0134C9.79687 60.8268 6.29575 96.0435 5.15502 131.349C5.0997 133.147 5.05097 134.957 5.00925 136.779L5.00949 136.757C4.84453 170.307 8.15155 203.719 14.6504 236.647C15.2918 240.549 15.9735 244.424 15.9497 248.357Z" fill="url(#paint9_linear_11644_58659)"/>
<path d="M340.321 273.448C507.033 272.743 642.176 271.077 642.17 269.726C642.164 268.376 507.053 270.852 340.34 271.556C173.628 272.261 38.4458 270.927 38.4515 272.278C38.4572 273.629 173.609 274.152 340.321 273.448Z" fill="url(#paint10_linear_11644_58659)"/>
<path d="M332.373 260.248C494.941 259.323 626.722 257.478 626.715 256.127C626.707 254.777 494.957 257.432 332.388 258.357C169.82 259.282 37.9951 258.127 38.0028 259.478C38.0104 260.829 169.804 261.174 332.373 260.248Z" fill="url(#paint11_linear_11644_58659)"/>
<defs>
<filter id="filter0_d_11644_58659" x="0" y="0.182861" width="672.731" height="282.952" filterUnits="userSpaceOnUse" color-interpolation-filters="sRGB">
<feFlood flood-opacity="0" result="BackgroundImageFix"/>
<feColorMatrix in="SourceAlpha" type="matrix" values="0 0 0 0 0 0 0 0 0 0 0 0 0 0 0 0 0 0 127 0" result="hardAlpha"/>
<feOffset dy="4"/>
<feGaussianBlur stdDeviation="2"/>
<feComposite in2="hardAlpha" operator="out"/>
<feColorMatrix type="matrix" values="0 0 0 0 0 0 0 0 0 0 0 0 0 0 0 0 0 0 0.25 0"/>
<feBlend mode="normal" in2="BackgroundImageFix" result="effect1_dropShadow_11644_58659"/>
<feBlend mode="normal" in="SourceGraphic" in2="effect1_dropShadow_11644_58659" result="shape"/>
</filter>
<linearGradient id="paint0_linear_11644_58659" x1="339.231" y1="4.15552" x2="338.231" y2="270.656" gradientUnits="userSpaceOnUse">
<stop stop-color="#F8F9FF"/>
<stop offset="0.240385" stop-color="#F3F3F3"/>
<stop offset="0.557692" stop-color="#DBDBDB"/>
<stop offset="0.764423" stop-color="white"/>
<stop offset="1" stop-color="#F8F9FF"/>
</linearGradient>
<linearGradient id="paint1_linear_11644_58659" x1="338.231" y1="3.15552" x2="336.731" y2="273.156" gradientUnits="userSpaceOnUse">
<stop stop-color="#F8F9FF" stop-opacity="0"/>
<stop offset="0.0576923" stop-color="#EDEDED"/>
<stop offset="0.976949" stop-color="#EDEDED"/>
<stop offset="0.9999" stop-color="#C1C1C1" stop-opacity="0"/>
<stop offset="1" stop-color="#EEEFF3"/>
</linearGradient>
<linearGradient id="paint2_linear_11644_58659" x1="51.4841" y1="17.5581" x2="616.415" y2="18.7527" gradientUnits="userSpaceOnUse">
<stop stop-color="#1218FF"/>
<stop offset="0.495192" stop-color="white"/>
<stop offset="1" stop-color="#1218FF"/>
</linearGradient>
<linearGradient id="paint3_linear_11644_58659" x1="51.0162" y1="1.2026" x2="615.935" y2="5.10855" gradientUnits="userSpaceOnUse">
<stop stop-color="#EBEBEB"/>
<stop offset="0.495192" stop-color="white"/>
<stop offset="1" stop-color="#EBEBEB"/>
</linearGradient>
<linearGradient id="paint4_linear_11644_58659" x1="51.0131" y1="13.5412" x2="615.936" y2="16.77" gradientUnits="userSpaceOnUse">
<stop stop-color="#F3F3F3"/>
<stop offset="0.495192" stop-color="white"/>
<stop offset="1" stop-color="#F3F3F3"/>
</linearGradient>
<linearGradient id="paint5_linear_11644_58659" x1="2.4456" y1="0" x2="2.4456" y2="564.933" gradientUnits="userSpaceOnUse">
<stop stop-color="#1218FF"/>
<stop offset="0.495192" stop-color="white"/>
<stop offset="1" stop-color="#1218FF"/>
</linearGradient>
<linearGradient id="paint6_linear_11644_58659" x1="32.938" y1="12.4871" x2="32.938" y2="261.938" gradientUnits="userSpaceOnUse">
<stop stop-color="#1218FF"/>
<stop offset="0.495192" stop-color="white"/>
<stop offset="1" stop-color="#1218FF"/>
</linearGradient>
<linearGradient id="paint7_linear_11644_58659" x1="643.704" y1="16.7407" x2="643.704" y2="260.057" gradientUnits="userSpaceOnUse">
<stop stop-color="#1218FF"/>
<stop offset="0.495192" stop-color="white"/>
<stop offset="1" stop-color="#1218FF"/>
</linearGradient>
<linearGradient id="paint8_linear_11644_58659" x1="662.84" y1="20.6426" x2="662.84" y2="255" gradientUnits="userSpaceOnUse">
<stop stop-color="#C1C1C1"/>
<stop offset="0.495192" stop-color="white"/>
<stop offset="1" stop-color="#C1C1C1"/>
</linearGradient>
<linearGradient id="paint9_linear_11644_58659" x1="7.90219" y1="19" x2="7.90219" y2="253.357" gradientUnits="userSpaceOnUse">
<stop stop-color="#DEDEDE"/>
<stop offset="0.495192" stop-color="white"/>
<stop offset="1" stop-color="#DEDEDE"/>
</linearGradient>
<linearGradient id="paint10_linear_11644_58659" x1="38.4515" y1="272.278" x2="642.17" y2="269.726" gradientUnits="userSpaceOnUse">
<stop stop-color="white"/>
<stop offset="0.495192" stop-color="#C1C1C2"/>
<stop offset="1" stop-color="white"/>
</linearGradient>
<linearGradient id="paint11_linear_11644_58659" x1="38.0027" y1="259.478" x2="626.715" y2="256.127" gradientUnits="userSpaceOnUse">
<stop stop-color="white"/>
<stop offset="0.495192" stop-color="white"/>
<stop offset="1" stop-color="white"/>
</linearGradient>
</defs>
</svg>
