<svg width="353" height="100" viewBox="0 0 353 100" fill="none" xmlns="http://www.w3.org/2000/svg">
<rect x="1.23189" y="1.23189" width="349.812" height="96.812" rx="11.0871" fill="url(#paint0_linear_11125_408)"/>
<rect x="1.23189" y="1.23189" width="349.812" height="96.812" rx="11.0871" stroke="url(#paint1_linear_11125_408)" stroke-width="2.46379"/>
<path d="M53.6799 55.5149C53.6799 56.503 53.5516 57.3948 53.2949 58.1904C53.0511 58.9732 52.7239 59.6661 52.3133 60.2692C51.9026 60.8723 51.4214 61.3856 50.8696 61.8091C50.3179 62.2326 49.7468 62.579 49.1565 62.8485C48.5663 63.118 47.9631 63.3169 47.3472 63.4452C46.7441 63.5735 46.1731 63.6377 45.6341 63.6377H26.328V58.6331H45.6341C46.5965 58.6331 47.3408 58.3508 47.8669 57.7862C48.4059 57.2216 48.6753 56.4645 48.6753 55.5149C48.6753 55.0529 48.6048 54.6295 48.4636 54.2445C48.3224 53.8595 48.1171 53.5259 47.8477 53.2436C47.591 52.9613 47.2702 52.7431 46.8852 52.5891C46.5131 52.4352 46.0961 52.3582 45.6341 52.3582H34.1236C33.3152 52.3582 32.4426 52.217 31.5058 51.9347C30.5691 51.6396 29.6965 51.1712 28.888 50.5296C28.0924 49.888 27.4252 49.0474 26.8862 48.008C26.3601 46.9686 26.097 45.6982 26.097 44.1969C26.097 42.6955 26.3601 41.4315 26.8862 40.4049C27.4252 39.3655 28.0924 38.525 28.888 37.8834C29.6965 37.229 30.5691 36.7606 31.5058 36.4783C32.4426 36.1831 33.3152 36.0356 34.1236 36.0356H51.1584V41.0401H34.1236C33.174 41.0401 32.4297 41.3289 31.8908 41.9063C31.3647 42.4838 31.1016 43.2473 31.1016 44.1969C31.1016 45.1593 31.3647 45.9228 31.8908 46.4874C32.4297 47.0392 33.174 47.3151 34.1236 47.3151H45.6341H45.6726C46.2115 47.3279 46.7826 47.4049 47.3857 47.5461C47.9888 47.6744 48.5855 47.8797 49.1758 48.162C49.7789 48.4443 50.3499 48.8036 50.8889 49.2399C51.4279 49.6634 51.9026 50.1767 52.3133 50.7798C52.7367 51.3829 53.0704 52.0759 53.3142 52.8586C53.558 53.6414 53.6799 54.5268 53.6799 55.5149ZM82.4754 41.0401H71.4461V63.6377H66.4416V41.0401H55.393V36.0356H82.4754V41.0401ZM112.291 63.6377H107.287V56.8623H89.6936V63.6377H84.689V49.8366C84.689 47.822 85.0355 45.9677 85.7284 44.2739C86.4214 42.58 87.3838 41.1235 88.6157 39.9045C89.8476 38.6854 91.304 37.7358 92.985 37.0557C94.6661 36.3756 96.5011 36.0356 98.4901 36.0356H109.77C110.116 36.0356 110.443 36.0997 110.751 36.228C111.059 36.3564 111.329 36.536 111.56 36.767C111.791 36.998 111.97 37.2675 112.099 37.5754C112.227 37.8834 112.291 38.2106 112.291 38.5571V63.6377ZM89.6936 51.8577H107.287V41.0401H98.4901C98.3361 41.0401 98.0089 41.0658 97.5084 41.1171C97.0208 41.1556 96.4497 41.2647 95.7953 41.4443C95.1537 41.624 94.4736 41.8999 93.755 42.272C93.0364 42.6442 92.3755 43.1574 91.7724 43.8119C91.1693 44.4663 90.6688 45.2876 90.271 46.2757C89.8861 47.2509 89.6936 48.4379 89.6936 49.8366V51.8577ZM145.706 45.3133C145.706 46.4553 145.565 47.4755 145.283 48.3738C145.001 49.272 144.616 50.0676 144.128 50.7605C143.653 51.4407 143.101 52.0245 142.473 52.5121C141.844 52.9998 141.183 53.404 140.49 53.7248C139.81 54.0328 139.117 54.2573 138.411 54.3985C137.718 54.5396 137.064 54.6102 136.448 54.6102L146.9 63.6377H139.162L128.729 54.6102H125.13V49.6056H136.448C137.077 49.5543 137.648 49.426 138.161 49.2207C138.687 49.0025 139.136 48.7138 139.508 48.3545C139.893 47.9952 140.188 47.5653 140.394 47.0649C140.599 46.5516 140.702 45.9677 140.702 45.3133V42.1565C140.702 41.8742 140.663 41.6625 140.586 41.5213C140.522 41.3674 140.432 41.2583 140.317 41.1941C140.214 41.1171 140.099 41.0722 139.97 41.0594C139.855 41.0465 139.746 41.0401 139.643 41.0401H123.128V63.6377H118.123V38.5571C118.123 38.2106 118.188 37.8834 118.316 37.5754C118.444 37.2675 118.617 36.998 118.836 36.767C119.067 36.536 119.336 36.3564 119.644 36.228C119.952 36.0997 120.286 36.0356 120.645 36.0356H139.643C140.759 36.0356 141.703 36.2409 142.473 36.6515C143.242 37.0493 143.865 37.5562 144.34 38.1721C144.827 38.7752 145.174 39.4297 145.379 40.1355C145.597 40.8412 145.706 41.5021 145.706 42.118V45.3133ZM175.445 41.0401H164.416V63.6377H159.411V41.0401H148.363V36.0356H175.445V41.0401ZM218.061 55.5149C218.061 56.503 217.933 57.3948 217.676 58.1904C217.432 58.9732 217.105 59.6661 216.694 60.2692C216.284 60.8723 215.802 61.3856 215.251 61.8091C214.699 62.2326 214.128 62.579 213.537 62.8485C212.947 63.118 212.344 63.3169 211.728 63.4452C211.125 63.5735 210.554 63.6377 210.015 63.6377H190.709V58.6331H210.015C210.977 58.6331 211.722 58.3508 212.248 57.7862C212.787 57.2216 213.056 56.4645 213.056 55.5149C213.056 55.0529 212.986 54.6295 212.845 54.2445C212.703 53.8595 212.498 53.5259 212.229 53.2436C211.972 52.9613 211.651 52.7431 211.266 52.5891C210.894 52.4352 210.477 52.3582 210.015 52.3582H198.505C197.696 52.3582 196.823 52.217 195.887 51.9347C194.95 51.6396 194.077 51.1712 193.269 50.5296C192.473 49.888 191.806 49.0474 191.267 48.008C190.741 46.9686 190.478 45.6982 190.478 44.1969C190.478 42.6955 190.741 41.4315 191.267 40.4049C191.806 39.3655 192.473 38.525 193.269 37.8834C194.077 37.229 194.95 36.7606 195.887 36.4783C196.823 36.1831 197.696 36.0356 198.505 36.0356H215.539V41.0401H198.505C197.555 41.0401 196.811 41.3289 196.272 41.9063C195.746 42.4838 195.483 43.2473 195.483 44.1969C195.483 45.1593 195.746 45.9228 196.272 46.4874C196.811 47.0392 197.555 47.3151 198.505 47.3151H210.015H210.054C210.592 47.3279 211.164 47.4049 211.767 47.5461C212.37 47.6744 212.966 47.8797 213.557 48.162C214.16 48.4443 214.731 48.8036 215.27 49.2399C215.809 49.6634 216.284 50.1767 216.694 50.7798C217.118 51.3829 217.451 52.0759 217.695 52.8586C217.939 53.6414 218.061 54.5268 218.061 55.5149ZM249.724 47.5846C249.724 48.7266 249.583 49.7468 249.301 50.6451C249.019 51.5433 248.634 52.3389 248.146 53.0319C247.671 53.712 247.119 54.2958 246.491 54.7835C245.862 55.2711 245.201 55.6689 244.508 55.9769C243.828 56.2848 243.135 56.5094 242.429 56.6505C241.736 56.7917 241.082 56.8623 240.466 56.8623H229.148V51.8577H240.466C241.108 51.8064 241.685 51.6781 242.198 51.4727C242.724 51.2546 243.174 50.9659 243.546 50.6066C243.918 50.2473 244.207 49.8174 244.412 49.3169C244.617 48.8036 244.72 48.2262 244.72 47.5846V45.3133C244.656 44.6845 244.521 44.107 244.316 43.5809C244.11 43.0548 243.828 42.6057 243.469 42.2335C243.122 41.8614 242.699 41.5727 242.198 41.3674C241.698 41.1492 241.12 41.0401 240.466 41.0401H229.186C228.519 41.0401 228.012 41.2134 227.666 41.5598C227.319 41.9063 227.146 42.4068 227.146 43.0612V63.6377H222.141V43.0612C222.141 41.778 222.372 40.6872 222.834 39.789C223.309 38.8907 223.893 38.1657 224.586 37.6139C225.292 37.0621 226.055 36.6643 226.877 36.4205C227.698 36.1639 228.455 36.0356 229.148 36.0356H240.466C241.595 36.0356 242.609 36.1831 243.507 36.4783C244.405 36.7606 245.195 37.1455 245.875 37.6332C246.568 38.108 247.152 38.6597 247.626 39.2885C248.114 39.9173 248.512 40.5782 248.82 41.2711C249.141 41.9512 249.371 42.6442 249.513 43.3499C249.654 44.0429 249.724 44.6973 249.724 45.3133V47.5846ZM281.6 45.3133C281.6 46.4553 281.458 47.4755 281.176 48.3738C280.894 49.272 280.509 50.0676 280.021 50.7605C279.546 51.4407 278.995 52.0245 278.366 52.5121C277.737 52.9998 277.076 53.404 276.383 53.7248C275.703 54.0328 275.01 54.2573 274.305 54.3985C273.612 54.5396 272.957 54.6102 272.341 54.6102L282.793 63.6377H275.055L264.623 54.6102H261.023V49.6056H272.341C272.97 49.5543 273.541 49.426 274.054 49.2207C274.58 49.0025 275.03 48.7138 275.402 48.3545C275.787 47.9952 276.082 47.5653 276.287 47.0649C276.492 46.5516 276.595 45.9677 276.595 45.3133V42.1565C276.595 41.8742 276.557 41.6625 276.48 41.5213C276.415 41.3674 276.326 41.2583 276.21 41.1941C276.107 41.1171 275.992 41.0722 275.864 41.0594C275.748 41.0465 275.639 41.0401 275.536 41.0401H259.021V63.6377H254.017V38.5571C254.017 38.2106 254.081 37.8834 254.209 37.5754C254.338 37.2675 254.511 36.998 254.729 36.767C254.96 36.536 255.229 36.3564 255.537 36.228C255.845 36.0997 256.179 36.0356 256.538 36.0356H275.536C276.653 36.0356 277.596 36.2409 278.366 36.6515C279.136 37.0493 279.758 37.5562 280.233 38.1721C280.721 38.7752 281.067 39.4297 281.272 40.1355C281.491 40.8412 281.6 41.5021 281.6 42.118V45.3133ZM291.667 63.6377H286.662V36.0356H291.667V63.6377ZM325.101 61.5011C325.101 61.8604 325.03 62.1941 324.889 62.502C324.761 62.81 324.581 63.0795 324.35 63.3105C324.132 63.5286 323.869 63.7019 323.561 63.8302C323.253 63.9585 322.926 64.0227 322.579 64.0227C322.271 64.0227 321.957 63.9649 321.636 63.8494C321.328 63.7339 321.052 63.5479 320.809 63.2912L302.523 44.1969V63.6377H297.518V38.1721C297.518 37.6588 297.659 37.1969 297.942 36.7862C298.237 36.3628 298.609 36.0484 299.058 35.8431C299.533 35.6506 300.02 35.6057 300.521 35.7083C301.021 35.7982 301.451 36.0291 301.81 36.4013L320.096 55.4764V36.0356H325.101V61.5011Z" fill="white"/>
<defs>
<linearGradient id="paint0_linear_11125_408" x1="31.7422" y1="-6.95303e-07" x2="321.787" y2="82.016" gradientUnits="userSpaceOnUse">
<stop stop-color="#00047D"/>
<stop offset="1" stop-color="#0008CE"/>
</linearGradient>
<linearGradient id="paint1_linear_11125_408" x1="-49.7916" y1="-42.2142" x2="411.905" y2="82.925" gradientUnits="userSpaceOnUse">
<stop stop-color="#000DFF"/>
<stop offset="0.505811" stop-color="#343EFF"/>
<stop offset="1" stop-color="white"/>
</linearGradient>
</defs>
</svg>
