<svg width="369" height="116" viewBox="0 0 369 116" fill="none" xmlns="http://www.w3.org/2000/svg">
<rect x="4" y="4" width="360.276" height="107.276" rx="16.3189" fill="url(#paint0_linear_11125_408)"/>
<rect x="4" y="4" width="360.276" height="107.276" rx="16.3189" stroke="url(#paint1_linear_11125_408)" stroke-width="8"/>
<path d="M61.6799 63.5149C61.6799 64.503 61.5516 65.3948 61.2949 66.1904C61.0511 66.9732 60.7239 67.6661 60.3133 68.2692C59.9026 68.8723 59.4214 69.3856 58.8696 69.8091C58.3179 70.2326 57.7468 70.579 57.1565 70.8485C56.5663 71.118 55.9631 71.3169 55.3472 71.4452C54.7441 71.5735 54.1731 71.6377 53.6341 71.6377H34.328V66.6331H53.6341C54.5965 66.6331 55.3408 66.3508 55.8669 65.7862C56.4059 65.2216 56.6753 64.4645 56.6753 63.5149C56.6753 63.0529 56.6048 62.6295 56.4636 62.2445C56.3224 61.8595 56.1171 61.5259 55.8477 61.2436C55.591 60.9613 55.2702 60.7431 54.8852 60.5891C54.5131 60.4352 54.0961 60.3582 53.6341 60.3582H42.1236C41.3152 60.3582 40.4426 60.217 39.5058 59.9347C38.5691 59.6396 37.6965 59.1712 36.888 58.5296C36.0924 57.888 35.4252 57.0474 34.8862 56.008C34.3601 54.9686 34.097 53.6982 34.097 52.1969C34.097 50.6955 34.3601 49.4315 34.8862 48.4049C35.4252 47.3655 36.0924 46.525 36.888 45.8834C37.6965 45.229 38.5691 44.7606 39.5058 44.4783C40.4426 44.1831 41.3152 44.0356 42.1236 44.0356H59.1584V49.0401H42.1236C41.174 49.0401 40.4297 49.3289 39.8908 49.9063C39.3647 50.4838 39.1016 51.2473 39.1016 52.1969C39.1016 53.1593 39.3647 53.9228 39.8908 54.4874C40.4297 55.0392 41.174 55.3151 42.1236 55.3151H53.6341H53.6726C54.2115 55.3279 54.7826 55.4049 55.3857 55.5461C55.9888 55.6744 56.5855 55.8797 57.1758 56.162C57.7789 56.4443 58.3499 56.8036 58.8889 57.2399C59.4279 57.6634 59.9026 58.1767 60.3133 58.7798C60.7367 59.3829 61.0704 60.0759 61.3142 60.8586C61.558 61.6414 61.6799 62.5268 61.6799 63.5149ZM90.4754 49.0401H79.4461V71.6377H74.4416V49.0401H63.393V44.0356H90.4754V49.0401ZM120.291 71.6377H115.287V64.8623H97.6936V71.6377H92.689V57.8366C92.689 55.822 93.0355 53.9677 93.7284 52.2739C94.4214 50.58 95.3838 49.1235 96.6157 47.9045C97.8476 46.6854 99.304 45.7358 100.985 45.0557C102.666 44.3756 104.501 44.0356 106.49 44.0356H117.77C118.116 44.0356 118.443 44.0997 118.751 44.228C119.059 44.3564 119.329 44.536 119.56 44.767C119.791 44.998 119.97 45.2675 120.099 45.5754C120.227 45.8834 120.291 46.2106 120.291 46.5571V71.6377ZM97.6936 59.8577H115.287V49.0401H106.49C106.336 49.0401 106.009 49.0658 105.508 49.1171C105.021 49.1556 104.45 49.2647 103.795 49.4443C103.154 49.624 102.474 49.8999 101.755 50.272C101.036 50.6442 100.376 51.1574 99.7724 51.8119C99.1693 52.4663 98.6688 53.2876 98.271 54.2757C97.8861 55.2509 97.6936 56.4379 97.6936 57.8366V59.8577ZM153.706 53.3133C153.706 54.4553 153.565 55.4755 153.283 56.3738C153.001 57.272 152.616 58.0676 152.128 58.7605C151.653 59.4407 151.101 60.0245 150.473 60.5121C149.844 60.9998 149.183 61.404 148.49 61.7248C147.81 62.0328 147.117 62.2573 146.411 62.3985C145.718 62.5396 145.064 62.6102 144.448 62.6102L154.9 71.6377H147.162L136.729 62.6102H133.13V57.6056H144.448C145.077 57.5543 145.648 57.426 146.161 57.2207C146.687 57.0025 147.136 56.7138 147.508 56.3545C147.893 55.9952 148.188 55.5653 148.394 55.0649C148.599 54.5516 148.702 53.9677 148.702 53.3133V50.1565C148.702 49.8742 148.663 49.6625 148.586 49.5213C148.522 49.3674 148.432 49.2583 148.317 49.1941C148.214 49.1171 148.099 49.0722 147.97 49.0594C147.855 49.0465 147.746 49.0401 147.643 49.0401H131.128V71.6377H126.123V46.5571C126.123 46.2106 126.188 45.8834 126.316 45.5754C126.444 45.2675 126.617 44.998 126.836 44.767C127.067 44.536 127.336 44.3564 127.644 44.228C127.952 44.0997 128.286 44.0356 128.645 44.0356H147.643C148.759 44.0356 149.703 44.2409 150.473 44.6515C151.242 45.0493 151.865 45.5562 152.34 46.1721C152.827 46.7752 153.174 47.4297 153.379 48.1355C153.597 48.8412 153.706 49.5021 153.706 50.118V53.3133ZM183.445 49.0401H172.416V71.6377H167.411V49.0401H156.363V44.0356H183.445V49.0401ZM226.061 63.5149C226.061 64.503 225.933 65.3948 225.676 66.1904C225.432 66.9732 225.105 67.6661 224.694 68.2692C224.284 68.8723 223.802 69.3856 223.251 69.8091C222.699 70.2326 222.128 70.579 221.537 70.8485C220.947 71.118 220.344 71.3169 219.728 71.4452C219.125 71.5735 218.554 71.6377 218.015 71.6377H198.709V66.6331H218.015C218.977 66.6331 219.722 66.3508 220.248 65.7862C220.787 65.2216 221.056 64.4645 221.056 63.5149C221.056 63.0529 220.986 62.6295 220.845 62.2445C220.703 61.8595 220.498 61.5259 220.229 61.2436C219.972 60.9613 219.651 60.7431 219.266 60.5891C218.894 60.4352 218.477 60.3582 218.015 60.3582H206.505C205.696 60.3582 204.823 60.217 203.887 59.9347C202.95 59.6396 202.077 59.1712 201.269 58.5296C200.473 57.888 199.806 57.0474 199.267 56.008C198.741 54.9686 198.478 53.6982 198.478 52.1969C198.478 50.6955 198.741 49.4315 199.267 48.4049C199.806 47.3655 200.473 46.525 201.269 45.8834C202.077 45.229 202.95 44.7606 203.887 44.4783C204.823 44.1831 205.696 44.0356 206.505 44.0356H223.539V49.0401H206.505C205.555 49.0401 204.811 49.3289 204.272 49.9063C203.746 50.4838 203.483 51.2473 203.483 52.1969C203.483 53.1593 203.746 53.9228 204.272 54.4874C204.811 55.0392 205.555 55.3151 206.505 55.3151H218.015H218.054C218.592 55.3279 219.164 55.4049 219.767 55.5461C220.37 55.6744 220.966 55.8797 221.557 56.162C222.16 56.4443 222.731 56.8036 223.27 57.2399C223.809 57.6634 224.284 58.1767 224.694 58.7798C225.118 59.3829 225.451 60.0759 225.695 60.8586C225.939 61.6414 226.061 62.5268 226.061 63.5149ZM257.724 55.5846C257.724 56.7266 257.583 57.7468 257.301 58.6451C257.019 59.5433 256.634 60.3389 256.146 61.0319C255.671 61.712 255.119 62.2958 254.491 62.7835C253.862 63.2711 253.201 63.6689 252.508 63.9769C251.828 64.2848 251.135 64.5094 250.429 64.6505C249.736 64.7917 249.082 64.8623 248.466 64.8623H237.148V59.8577H248.466C249.108 59.8064 249.685 59.6781 250.198 59.4727C250.724 59.2546 251.174 58.9659 251.546 58.6066C251.918 58.2473 252.207 57.8174 252.412 57.3169C252.617 56.8036 252.72 56.2262 252.72 55.5846V53.3133C252.656 52.6845 252.521 52.107 252.316 51.5809C252.11 51.0548 251.828 50.6057 251.469 50.2335C251.122 49.8614 250.699 49.5727 250.198 49.3674C249.698 49.1492 249.12 49.0401 248.466 49.0401H237.186C236.519 49.0401 236.012 49.2134 235.666 49.5598C235.319 49.9063 235.146 50.4068 235.146 51.0612V71.6377H230.141V51.0612C230.141 49.778 230.372 48.6872 230.834 47.789C231.309 46.8907 231.893 46.1657 232.586 45.6139C233.292 45.0621 234.055 44.6643 234.877 44.4205C235.698 44.1639 236.455 44.0356 237.148 44.0356H248.466C249.595 44.0356 250.609 44.1831 251.507 44.4783C252.405 44.7606 253.195 45.1455 253.875 45.6332C254.568 46.108 255.152 46.6597 255.626 47.2885C256.114 47.9173 256.512 48.5782 256.82 49.2711C257.141 49.9512 257.371 50.6442 257.513 51.3499C257.654 52.0429 257.724 52.6973 257.724 53.3133V55.5846ZM289.6 53.3133C289.6 54.4553 289.458 55.4755 289.176 56.3738C288.894 57.272 288.509 58.0676 288.021 58.7605C287.546 59.4407 286.995 60.0245 286.366 60.5121C285.737 60.9998 285.076 61.404 284.383 61.7248C283.703 62.0328 283.01 62.2573 282.305 62.3985C281.612 62.5396 280.957 62.6102 280.341 62.6102L290.793 71.6377H283.055L272.623 62.6102H269.023V57.6056H280.341C280.97 57.5543 281.541 57.426 282.054 57.2207C282.58 57.0025 283.03 56.7138 283.402 56.3545C283.787 55.9952 284.082 55.5653 284.287 55.0649C284.492 54.5516 284.595 53.9677 284.595 53.3133V50.1565C284.595 49.8742 284.557 49.6625 284.48 49.5213C284.415 49.3674 284.326 49.2583 284.21 49.1941C284.107 49.1171 283.992 49.0722 283.864 49.0594C283.748 49.0465 283.639 49.0401 283.536 49.0401H267.021V71.6377H262.017V46.5571C262.017 46.2106 262.081 45.8834 262.209 45.5754C262.338 45.2675 262.511 44.998 262.729 44.767C262.96 44.536 263.229 44.3564 263.537 44.228C263.845 44.0997 264.179 44.0356 264.538 44.0356H283.536C284.653 44.0356 285.596 44.2409 286.366 44.6515C287.136 45.0493 287.758 45.5562 288.233 46.1721C288.721 46.7752 289.067 47.4297 289.272 48.1355C289.491 48.8412 289.6 49.5021 289.6 50.118V53.3133ZM299.667 71.6377H294.662V44.0356H299.667V71.6377ZM333.101 69.5011C333.101 69.8604 333.03 70.1941 332.889 70.502C332.761 70.81 332.581 71.0795 332.35 71.3105C332.132 71.5286 331.869 71.7019 331.561 71.8302C331.253 71.9585 330.926 72.0227 330.579 72.0227C330.271 72.0227 329.957 71.9649 329.636 71.8494C329.328 71.7339 329.052 71.5479 328.809 71.2912L310.523 52.1969V71.6377H305.518V46.1721C305.518 45.6588 305.659 45.1969 305.942 44.7862C306.237 44.3628 306.609 44.0484 307.058 43.8431C307.533 43.6506 308.02 43.6057 308.521 43.7083C309.021 43.7982 309.451 44.0291 309.81 44.4013L328.096 63.4764V44.0356H333.101V69.5011Z" fill="white"/>
<defs>
<linearGradient id="paint0_linear_11125_408" x1="39.7422" y1="8" x2="329.787" y2="90.016" gradientUnits="userSpaceOnUse">
<stop stop-color="#00047D"/>
<stop offset="1" stop-color="#0008CE"/>
</linearGradient>
<linearGradient id="paint1_linear_11125_408" x1="-41.7916" y1="-34.2142" x2="419.905" y2="90.925" gradientUnits="userSpaceOnUse">
<stop stop-color="#000DFF"/>
<stop offset="0.505811" stop-color="#343EFF"/>
<stop offset="1" stop-color="white"/>
</linearGradient>
</defs>
</svg>
