<svg width="239" height="224" viewBox="0 0 239 224" fill="none" xmlns="http://www.w3.org/2000/svg">
<g clip-path="url(#clip0_10962_738)">
<path d="M191.641 44.7019C189.554 42.6154 186.171 42.6154 184.085 44.7019C181.998 46.7885 181.998 50.1715 184.085 52.258L194.406 62.5795C196.493 64.6661 199.876 64.6661 201.962 62.5795C204.049 60.4929 204.049 57.1099 201.962 55.0234L191.641 44.7019Z" stroke="#2E3192" stroke-width="2.79007" stroke-miterlimit="10"/>
<path d="M216.464 69.5244C214.377 67.4379 210.994 67.4379 208.908 69.5244C206.821 71.611 206.821 74.994 208.908 77.0806L219.229 87.402C221.316 89.4886 224.699 89.4886 226.785 87.402C228.872 85.3154 228.872 81.9324 226.785 79.8459L216.464 69.5244Z" stroke="#2E3192" stroke-width="2.79007" stroke-miterlimit="10"/>
<path d="M213.627 72.3207L203.867 66.2012C203.611 66.0431 203.327 65.978 203.048 65.9919L203.193 66.9498L201.965 66.615C201.965 66.615 201.951 66.629 201.946 66.6383C201.867 66.7638 201.816 66.8987 201.784 67.0335L202.355 67.9682L201.965 68.1403C202.072 68.303 202.211 68.4472 202.388 68.5588L212.149 74.6783C212.711 75.0318 213.427 74.9341 213.874 74.483C213.948 74.4086 214.013 74.3296 214.069 74.2366C214.478 73.5856 214.283 72.7253 213.627 72.3114V72.3207ZM206.922 64.0993H208.159C208.21 63.9412 208.229 63.7785 208.219 63.6157L207.359 62.9647L207.968 62.8763C207.857 62.7136 207.708 62.5741 207.526 62.4671L198.677 57.3845C198.008 56.9986 197.157 57.2357 196.771 57.9007C196.385 58.5703 196.617 59.4213 197.287 59.8073L206.136 64.8898C206.531 65.1177 206.992 65.127 207.382 64.9549L206.922 64.0993Z" fill="#2E3192"/>
<path d="M212.944 41.1418L210.265 54.4737" stroke="#FF3D00" stroke-width="0.930024" stroke-linecap="round" stroke-linejoin="round"/>
<path d="M231.2 59.3984L217.868 62.0723" stroke="#FF3D00" stroke-width="0.930024" stroke-linecap="round" stroke-linejoin="round"/>
<path d="M214.065 58.2733L223.714 48.6289" stroke="#2E3192" stroke-width="0.930024" stroke-linecap="round" stroke-linejoin="round"/>
<path d="M180.528 73.562L193.86 70.8835" stroke="#2E3192" stroke-width="0.930024" stroke-linecap="round" stroke-linejoin="round"/>
<path d="M198.78 91.8143L201.458 78.4824" stroke="#2E3192" stroke-width="0.930024" stroke-linecap="round" stroke-linejoin="round"/>
<path d="M197.659 74.6831L188.01 84.3275" stroke="#FF3D00" stroke-width="0.930024" stroke-linecap="round" stroke-linejoin="round"/>
<path d="M107.372 30.8002L110.948 53.3812C111.241 55.2366 112.98 56.4968 114.836 56.2038L117.728 55.7434C118.202 55.669 118.681 55.8504 118.988 56.2177L124.201 62.528C124.857 63.3231 126.131 63.1232 126.507 62.1606L129.516 54.5484C129.693 54.1019 130.093 53.7811 130.567 53.7067L146.838 51.1305C148.693 50.8376 149.953 49.0984 149.66 47.243L146.084 24.662C145.791 22.8066 144.052 21.5464 142.197 21.8394L110.195 26.908C108.339 27.201 107.079 28.9401 107.372 30.7955V30.8002Z" fill="#2E3192"/>
<path d="M128.144 49.3631C127.521 48.9445 127.149 48.3633 127.033 47.6146C126.917 46.8659 127.084 46.1684 127.544 45.5686C128.005 44.9687 128.67 44.5967 129.525 44.4618C130.381 44.327 131.097 44.4758 131.725 44.9082C132.353 45.336 132.725 45.9359 132.846 46.6985C132.966 47.4612 132.79 48.1122 132.325 48.7027C131.86 49.2933 131.209 49.656 130.367 49.7909C129.507 49.9257 128.767 49.7862 128.144 49.3677V49.3631ZM129.614 28.3352L131.213 42.1414L127.061 42.7971L124.317 29.1722L129.614 28.3352Z" fill="white"/>
<path d="M144.508 158.609C149.519 158.609 153.581 154.547 153.581 149.536C153.581 144.526 149.519 140.464 144.508 140.464C139.498 140.464 135.436 144.526 135.436 149.536C135.436 154.547 139.498 158.609 144.508 158.609Z" fill="white"/>
<path d="M113.455 134.288C118.83 134.288 123.187 129.931 123.187 124.555C123.187 119.18 118.83 114.823 113.455 114.823C108.079 114.823 103.722 119.18 103.722 124.555C103.722 129.931 108.079 134.288 113.455 134.288Z" fill="white"/>
<path d="M119.556 116.971L107.354 132.135L138.831 156.609L150.205 142.473L119.556 116.971Z" fill="white"/>
<path d="M107.354 132.135L138.817 156.6" stroke="#2E3192" stroke-width="0.930024" stroke-linecap="round" stroke-linejoin="round"/>
<path d="M150.205 142.473L119.556 116.971" stroke="#2E3192" stroke-width="0.930024" stroke-linecap="round" stroke-linejoin="round"/>
<path d="M160.988 123.444C164.733 123.444 167.768 120.409 167.768 116.664C167.768 112.92 164.733 109.884 160.988 109.884C157.244 109.884 154.209 112.92 154.209 116.664C154.209 120.409 157.244 123.444 160.988 123.444Z" fill="white"/>
<path d="M167.829 116.934L168.94 114.6C168.94 114.6 178.617 117.892 179.83 117.395C181.044 116.897 181.844 116.944 181.844 116.944C181.844 116.944 184.336 117.097 185.545 116.497C186.75 115.902 189.628 114.614 189.628 114.614L193.065 112.889C193.065 112.889 193.772 112.047 193.265 110.931C192.762 109.815 191.553 109.652 190.693 109.852C189.833 110.052 189.484 110.178 189.484 110.178C189.484 110.178 190.498 107.741 188.633 107.178C186.768 106.616 186.401 107.351 185.615 108.676C184.829 110.001 185.039 109.676 185.039 109.676C185.039 109.676 185.592 107.969 184.071 107.411C182.551 106.853 181.877 107.202 181.072 108.271C180.268 109.341 179.272 111.317 179.272 111.317L171.656 107.253L175.524 104.467C175.524 104.467 176.464 103.593 175.664 102.463C174.869 101.338 172.6 101.705 172.6 101.705L164.397 105.328C164.397 105.328 160.918 105.337 159.361 107.072L154.515 114.312L167.824 116.939L167.829 116.934Z" fill="white"/>
<path d="M154.59 113.991C155.092 111.968 156.515 110.205 158.589 109.35C162.053 107.922 166.015 109.573 167.443 113.033C168.87 116.497 167.22 120.459 163.76 121.887C160.296 123.314 156.334 121.663 154.906 118.204C154.334 116.813 154.255 115.344 154.59 113.991Z" fill="white"/>
<path d="M154.52 114.302C154.52 114.302 158.1 108.211 159.551 106.881C161.002 105.551 164.211 105.407 164.211 105.407C164.211 105.407 169.921 102.858 171.293 102.147C172.665 101.44 175.059 101.254 175.669 102.458C176.278 103.663 175.576 104.723 174.497 105.425C173.413 106.127 171.516 107.341 171.516 107.341C171.516 107.341 173.502 108.118 174.864 108.992C176.227 109.866 179.161 111.247 179.161 111.247" stroke="#2E3192" stroke-width="0.930024" stroke-linecap="round" stroke-linejoin="round"/>
<path d="M168.219 108.639C168.219 108.639 172.246 109.434 173.818 110.959C175.39 112.484 177.989 112.884 178.528 112.373C179.068 111.861 180.393 109.322 181.077 108.271C181.76 107.22 182.913 106.839 184.076 107.411C185.239 107.983 185.313 108.862 184.578 110.383C183.844 111.908 180.905 117.241 179.83 117.395C178.756 117.553 169.33 114.716 169.33 114.716L167.061 119.687" stroke="#2E3192" stroke-width="0.930024" stroke-linecap="round" stroke-linejoin="round"/>
<path d="M184.578 110.382C184.578 110.382 185.467 109.103 185.876 108.141C186.285 107.183 187.196 106.774 188.461 107.164C189.726 107.555 190.154 108.424 189.526 110.071C188.903 111.717 186.731 116.451 184.988 116.72C183.244 116.99 182.216 117.018 180.565 116.855" stroke="#2E3192" stroke-width="0.930024" stroke-linecap="round" stroke-linejoin="round"/>
<path d="M189.461 110.336C189.461 110.336 189.731 110.187 190.693 109.852C191.656 109.517 192.888 110.103 193.265 110.931C193.641 111.763 193.539 112.949 192.186 113.502C190.828 114.056 186.001 116.237 186.001 116.237" stroke="#2E3192" stroke-width="0.930024" stroke-linecap="round" stroke-linejoin="round"/>
<path d="M154.924 113.637L167.057 119.696L152.609 153.735L136.375 145.625L154.924 113.637Z" fill="white"/>
<path d="M167.061 119.687L152.599 153.642" stroke="#2E3192" stroke-width="0.930024" stroke-linecap="round" stroke-linejoin="round"/>
<path d="M138.496 141.97L154.915 113.646" stroke="#2E3192" stroke-width="0.930024" stroke-linecap="round" stroke-linejoin="round"/>
<path d="M152.576 153.689C152.302 154.224 151.967 154.74 151.572 155.228C148.429 159.13 142.718 159.743 138.817 156.595" stroke="#2E3192" stroke-width="0.930024" stroke-linecap="round" stroke-linejoin="round"/>
<path d="M99.8305 66.783C99.8305 66.783 91.0976 60.8169 80.8626 62.1841C70.6277 63.5512 70.2418 74.014 70.2418 74.014L70.9114 110.038L88.3726 109.783C88.0936 104.612 88.2424 99.5338 88.8841 94.5582C90.9766 94.2978 94.9386 95.7579 96.6777 94.0234C98.4168 92.2889 100.114 86.1833 100.114 86.1833L102.56 85.2021C101.495 83.649 100.663 81.0914 100.375 79.264C100.165 77.948 100.398 77.4597 100.533 76.1344C100.914 72.498 101.156 71.6936 99.8351 66.7737L99.8305 66.783Z" fill="white"/>
<path d="M98.7418 64.5275C98.7418 64.5275 90.3762 58.2219 80.1367 59.5844C69.8971 60.9469 65.991 74.6322 65.991 74.6322C72.9476 89.4661 70.1622 99.1476 70.9062 110.043L88.3674 109.787C88.2883 103.719 88.0512 96.711 88.9672 94.3022C91.0598 94.0418 94.194 95.9995 96.3237 94.3534C98.2675 92.8514 100.104 86.1924 100.104 86.1924L102.248 85.3321C101.457 83.035 100.225 80.1984 100.523 77.7803C100.82 75.3623 100.727 71.9584 100.481 69.6473C100.29 67.8616 99.3184 66.6758 98.7418 64.5321V64.5275Z" stroke="#2E3192" stroke-width="0.930024" stroke-linecap="round" stroke-linejoin="round"/>
<path d="M98.0213 61.3378C94.5709 57.3341 84.35 53.4791 74.701 58.1711C65.052 62.8631 63.9917 71.6146 65.4472 78.892C66.7957 85.6301 69.9671 86.5601 69.9113 88.8851C69.9532 89.0339 70.009 89.1734 70.0834 89.3036C70.9344 90.8103 73.2594 90.15 73.3524 88.4248C73.3989 87.5366 73.3943 86.5508 73.1618 86.1276C71.2831 82.6586 69.6881 78.2364 72.5572 75.0557C75.4264 71.8796 79.6394 74.4465 80.1834 78.241C87.3586 77.3714 92.2366 73.3723 95.0917 70.7915C96.9053 71.875 100.491 73.5769 100.793 72.5493C101.109 71.4658 101.472 65.3369 98.0213 61.3378Z" fill="#2E3192"/>
<path d="M98.5428 78.7702C98.5719 77.9618 98.1461 77.2902 97.5917 77.2703C97.0373 77.2503 96.5643 77.8896 96.5353 78.698C96.5062 79.5065 96.932 80.178 97.4864 80.198C98.0408 80.2179 98.5137 79.5787 98.5428 78.7702Z" fill="#2E3192"/>
<path d="M98.9655 88.8058L97.7239 88.6616" stroke="#2E3192" stroke-width="0.930024" stroke-linecap="round" stroke-linejoin="round"/>
<path d="M77.4584 86.0496L77.421 84.1016C77.404 83.2157 76.6731 82.5113 75.7886 82.5283C74.904 82.5453 74.2007 83.2772 74.2177 84.1631L74.2551 86.1111C74.2721 86.997 75.003 87.7013 75.8876 87.6844C76.7721 87.6674 77.4754 86.9355 77.4584 86.0496Z" fill="#CAD6F4"/>
<path d="M65.0426 74.0181C69.7013 74.0181 73.4779 70.2415 73.4779 65.5828C73.4779 60.9241 69.7013 57.1475 65.0426 57.1475C60.3839 57.1475 56.6072 60.9241 56.6072 65.5828C56.6072 70.2415 60.3839 74.0181 65.0426 74.0181Z" fill="#2E3192"/>
<path d="M109.684 134.302C116.104 134.302 121.309 129.098 121.309 122.677C121.309 116.257 116.104 111.052 109.684 111.052C103.263 111.052 98.0583 116.257 98.0583 122.677C98.0583 129.098 103.263 134.302 109.684 134.302Z" fill="#CAD6F4"/>
<path d="M67.2094 102.459C67.2094 101.054 68.3487 99.915 69.753 99.915H79.1927H88.6325C90.0368 99.915 91.1761 101.054 91.1761 102.459L113.455 111.68L107.042 164.701H51.3385L44.926 111.68L67.2047 102.459H67.2094Z" fill="#CAD6F4"/>
<path d="M51.343 164.7H79.1972H107.051L109.725 191.057H79.1972H48.6692L51.343 164.7Z" fill="#CAD6F4"/>
<path d="M120.541 147.332L135.725 129.723L117.299 113.836L102.116 131.444L120.541 147.332Z" fill="#CAD6F4"/>
<path d="M132.148 191.057H23.3726" stroke="#2E3192" stroke-width="0.930024" stroke-linecap="round" stroke-linejoin="round"/>
<path d="M50.0456 153.949L48.4785 141.501" stroke="#2E3192" stroke-width="0.930024" stroke-linecap="round" stroke-linejoin="round"/>
<path d="M40.4664 175.321C45.4769 175.321 49.5388 171.259 49.5388 166.249C49.5388 161.238 45.4769 157.177 40.4664 157.177C35.4558 157.177 31.394 161.238 31.394 166.249C31.394 171.259 35.4558 175.321 40.4664 175.321Z" fill="white"/>
<path d="M47.5204 137.004C52.8956 137.004 57.2531 132.647 57.2531 127.272C57.2531 121.896 52.8956 117.539 47.5204 117.539C42.1452 117.539 37.7877 121.896 37.7877 127.272C37.7877 132.647 42.1452 137.004 47.5204 137.004Z" fill="white"/>
<path d="M57.1133 128.899L37.9222 125.639L31.9003 165.054L49.7893 168.09L57.1133 128.899Z" fill="white"/>
<path d="M37.9222 125.639L31.905 165.035" stroke="#2E3192" stroke-width="0.930024" stroke-linecap="round" stroke-linejoin="round"/>
<path d="M49.7894 168.09L57.1133 128.898" stroke="#2E3192" stroke-width="0.930024" stroke-linecap="round" stroke-linejoin="round"/>
<path d="M117.17 164.291L89.1157 168.932V133.958L117.17 129.318V164.291Z" fill="#FF3D00"/>
<path d="M76.3234 163.631C80.0679 163.631 83.1033 160.595 83.1033 156.851C83.1033 153.107 80.0679 150.071 76.3234 150.071C72.579 150.071 69.5436 153.107 69.5436 156.851C69.5436 160.595 72.579 163.631 76.3234 163.631Z" fill="white"/>
<path d="M79.7738 162.812C79.7738 162.812 88.4555 162.608 91.3107 162.426C94.1705 162.24 100.495 161.408 100.495 161.408C100.495 161.408 101.811 160.896 101.797 159.985C101.783 159.073 101.773 158.641 101.773 158.641C101.773 158.641 103.768 158.743 103.871 156.772C103.978 154.8 102.42 154.786 102.42 154.786C102.42 154.786 104.643 154.409 104.392 152.517C104.145 150.624 102.829 150.894 101.866 150.94C100.904 150.987 93.8171 151.67 93.8171 151.67L101.369 149.108C101.369 149.108 102.401 148.09 102.025 147.099C101.648 146.109 100.969 145.314 99.9227 145.342C98.8765 145.37 90.6318 147.271 90.6318 147.271C90.6318 147.271 92.3895 146.239 92.8267 145.89C93.2638 145.542 93.8078 144.858 93.2312 144.035C92.6546 143.217 90.8271 142.728 88.6741 142.993C86.5164 143.258 81.5315 145.37 78.4252 147.695C76.4303 149.011 74.561 150.285 74.561 150.285L79.7691 162.812H79.7738Z" fill="white"/>
<path d="M78.3322 163.329C78.3322 163.329 95.6911 162.622 100.16 161.469C101.22 161.329 101.969 160.353 101.829 159.293C101.797 159.065 101.727 158.851 101.625 158.655L102.183 158.581C103.248 158.442 103.996 157.47 103.857 156.405C103.74 155.521 103.048 154.856 102.211 154.735L102.708 154.675C103.773 154.545 104.526 153.573 104.396 152.513C104.275 151.448 103.294 150.694 102.234 150.825L90.8364 152.234V152.117C94.1612 151.429 97.514 150.434 100.876 149.267C101.88 148.899 102.466 147.886 101.908 146.798C101.346 145.709 100.504 145.226 99.4345 145.347C98.7648 145.44 91.9013 147.258 88.7392 147.779C88.6741 147.788 88.609 147.756 88.5718 147.7C88.5067 147.602 88.5578 147.467 88.6694 147.435C90.562 146.867 92.5244 146.114 93.0405 145.765C93.7939 145.258 93.7799 143.226 91.1572 143.031C89.4646 142.905 88.3765 143.017 85.5306 143.808C82.6894 144.593 74.5656 150.285 74.5656 150.285" stroke="#2E3192" stroke-width="0.930024" stroke-linecap="round" stroke-linejoin="round"/>
<path d="M95.5186 155.996L92.51 156.396" stroke="#2E3192" stroke-width="0.930024" stroke-miterlimit="10" stroke-linecap="round"/>
<path d="M96.8258 159.66L93.7428 160.064" stroke="#2E3192" stroke-width="0.930024" stroke-miterlimit="10" stroke-linecap="round"/>
<path d="M74.5329 150.313L78.1135 163.394L43.1214 175.345L38.3318 157.846L74.5329 150.313Z" fill="white"/>
<path d="M78.1278 163.389L43.131 175.344" stroke="#2E3192" stroke-width="0.930024" stroke-linecap="round" stroke-linejoin="round"/>
<path d="M38.3225 157.851L74.519 150.317" stroke="#2E3192" stroke-width="0.930024" stroke-linecap="round" stroke-linejoin="round"/>
<path d="M94.4726 146.053L89.1157 147.356V138.813H95.2818L94.4726 146.053Z" fill="#FF3D00"/>
<path d="M60.1461 124.564L37.2071 120.771L32.6026 148.614L55.5417 152.408L60.1461 124.564Z" fill="#CAD6F4"/>
<path d="M48.7113 134.302C55.1318 134.302 60.3366 129.098 60.3366 122.677C60.3366 116.257 55.1318 111.052 48.7113 111.052C42.2908 111.052 37.086 116.257 37.086 122.677C37.086 129.098 42.2908 134.302 48.7113 134.302Z" fill="#CAD6F4"/>
<path d="M44.2794 174.949C42.6751 175.665 40.9592 175.809 39.1735 175.391C34.2955 174.238 31.0219 169.704 31.9612 164.779" stroke="#2E3192" stroke-width="0.930024" stroke-linecap="round" stroke-linejoin="round"/>
</g>
<defs>
<clipPath id="clip0_10962_738">
<rect width="237.621" height="223.206" fill="white" transform="translate(0.689423 0.397217)"/>
</clipPath>
</defs>
</svg>
