<svg width="336" height="252" viewBox="0 0 336 252" fill="none" xmlns="http://www.w3.org/2000/svg">
<mask id="mask0_11092_64491" style="mask-type:luminance" maskUnits="userSpaceOnUse" x="0" y="0" width="336" height="252">
<path d="M336 0H0V252H336V0Z" fill="white"/>
</mask>
<g mask="url(#mask0_11092_64491)">
<path d="M39.4689 150.893C44.0138 155.272 48.5587 159.651 53.1035 164.03C54.5406 165.415 55.4103 167.157 55.0739 169.201C54.02 175.605 52.9661 182.008 51.9122 188.412C51.6134 190.227 52.2149 191.861 53.3015 193.016C54.8802 194.693 57.4833 195.359 59.8376 194.1C63.4296 192.179 67.0216 190.258 70.6136 188.336C72.738 187.2 74.8625 186.064 76.9869 184.928C79.9672 183.334 82.6723 185.219 85.3048 186.583C89.9744 189.003 94.6441 191.423 99.3137 193.842C103.316 195.916 107.955 192.494 107.164 188.052C107.021 187.248 106.878 186.444 106.735 185.64C105.907 180.987 105.079 176.334 104.251 171.681C103.768 168.969 103.084 166.232 105.285 164.054C106.399 162.953 107.512 161.852 108.626 160.751C112.123 157.292 115.621 153.833 119.119 150.373C119.735 149.764 120.165 149.07 120.427 148.342C121.459 145.475 119.881 142.077 116.72 141.242C116.503 141.184 116.278 141.139 116.045 141.107C112.689 140.64 109.332 140.174 105.975 139.708C102.913 139.283 99.8502 138.858 96.7879 138.432C95.6202 138.27 94.5543 137.736 93.7335 136.932C93.3083 136.516 92.9489 136.027 92.6751 135.481C89.9374 130.015 87.1997 124.55 84.462 119.084C84.2938 118.749 84.1257 118.413 83.9575 118.077C82.3251 114.819 78.2504 114.217 75.7076 116.247C75.1031 116.73 74.5852 117.361 74.2073 118.141C72.0605 122.57 69.9137 126.998 67.7668 131.427C67.0835 132.837 66.4001 134.247 65.7167 135.656C64.3654 138.444 61.5574 138.674 58.8371 139.088C54.1713 139.798 49.5055 140.508 44.8396 141.219C44.0336 141.341 43.2276 141.464 42.4215 141.587C37.9666 142.265 36.2218 147.764 39.4689 150.893Z" fill="#ED1C24"/>
<mask id="mask1_11092_64491" style="mask-type:luminance" maskUnits="userSpaceOnUse" x="37" y="115" width="84" height="80">
<path d="M39.4689 150.893C44.0138 155.272 48.5587 159.651 53.1035 164.03C54.5406 165.415 55.4103 167.157 55.0739 169.201C54.02 175.605 52.9661 182.008 51.9122 188.412C51.6134 190.227 52.2149 191.861 53.3015 193.016C54.8802 194.693 57.4833 195.359 59.8376 194.1C63.4296 192.179 67.0216 190.258 70.6136 188.336C72.738 187.2 74.8625 186.064 76.9869 184.928C79.9672 183.334 82.6723 185.219 85.3048 186.583C89.9744 189.003 94.6441 191.423 99.3137 193.842C103.316 195.916 107.955 192.494 107.164 188.052C107.021 187.248 106.878 186.444 106.735 185.64C105.907 180.987 105.079 176.334 104.251 171.681C103.768 168.969 103.084 166.232 105.285 164.054C106.399 162.953 107.512 161.852 108.626 160.751C112.123 157.292 115.621 153.833 119.119 150.373C119.735 149.764 120.165 149.07 120.427 148.342C121.459 145.475 119.881 142.077 116.72 141.242C116.503 141.184 116.278 141.139 116.045 141.107C112.689 140.64 109.332 140.174 105.975 139.708C102.913 139.283 99.8502 138.858 96.7879 138.432C95.6202 138.27 94.5543 137.736 93.7335 136.932C93.3083 136.516 92.9489 136.027 92.6751 135.481C89.9374 130.015 87.1997 124.55 84.462 119.084C84.2938 118.749 84.1257 118.413 83.9575 118.077C82.3251 114.819 78.2504 114.217 75.7076 116.247C75.1031 116.73 74.5852 117.361 74.2073 118.141C72.0605 122.57 69.9137 126.998 67.7668 131.427C67.0835 132.837 66.4001 134.247 65.7167 135.656C64.3654 138.444 61.5574 138.674 58.8371 139.088C54.1713 139.798 49.5055 140.508 44.8396 141.219C44.0336 141.341 43.2276 141.464 42.4215 141.587C37.9666 142.265 36.2218 147.764 39.4689 150.893Z" fill="white"/>
</mask>
<g mask="url(#mask1_11092_64491)">
<path d="M49.3971 208.74L76.9869 184.928C76.9869 184.928 81.3233 169.895 99.3137 193.843C117.304 217.791 94.0986 208.984 94.0986 208.984" fill="#0681FC"/>
</g>
<mask id="mask2_11092_64491" style="mask-type:luminance" maskUnits="userSpaceOnUse" x="37" y="115" width="84" height="80">
<path d="M39.4689 150.893C44.0138 155.272 48.5587 159.651 53.1035 164.03C54.5406 165.415 55.4103 167.157 55.0739 169.201C54.02 175.605 52.9661 182.008 51.9122 188.412C51.6134 190.227 52.2149 191.861 53.3015 193.016C54.8802 194.693 57.4833 195.359 59.8376 194.1C63.4296 192.179 67.0216 190.258 70.6136 188.336C72.738 187.2 74.8625 186.064 76.9869 184.928C79.9672 183.334 82.6723 185.219 85.3048 186.583C89.9744 189.003 94.6441 191.423 99.3137 193.842C103.316 195.916 107.955 192.494 107.164 188.052C107.021 187.248 106.878 186.444 106.735 185.64C105.907 180.987 105.079 176.334 104.251 171.681C103.768 168.969 103.084 166.232 105.285 164.054C106.399 162.953 107.512 161.852 108.626 160.751C112.123 157.292 115.621 153.833 119.119 150.373C119.735 149.764 120.165 149.07 120.427 148.342C121.459 145.475 119.881 142.077 116.72 141.242C116.503 141.184 116.278 141.139 116.045 141.107C112.689 140.64 109.332 140.174 105.975 139.708C102.913 139.283 99.8502 138.858 96.7879 138.432C95.6202 138.27 94.5543 137.736 93.7335 136.932C93.3083 136.516 92.9489 136.027 92.6751 135.481C89.9374 130.015 87.1997 124.55 84.462 119.084C84.2938 118.749 84.1257 118.413 83.9575 118.077C82.3251 114.819 78.2504 114.217 75.7076 116.247C75.1031 116.73 74.5852 117.361 74.2073 118.141C72.0605 122.57 69.9137 126.998 67.7668 131.427C67.0835 132.837 66.4001 134.247 65.7167 135.656C64.3654 138.444 61.5574 138.674 58.8371 139.088C54.1713 139.798 49.5055 140.508 44.8396 141.219C44.0336 141.341 43.2276 141.464 42.4215 141.587C37.9666 142.265 36.2218 147.764 39.4689 150.893Z" fill="white"/>
</mask>
<g mask="url(#mask2_11092_64491)">
<path d="M37.796 140.489C70.4043 138.777 78.0103 141.295 74.2073 118.142C70.4043 94.9888 37.796 117.739 37.796 117.739" fill="#0681FC"/>
</g>
<path d="M39.4689 150.893C44.0138 155.272 48.5587 159.651 53.1035 164.03C54.5406 165.415 55.4103 167.157 55.0739 169.201C54.02 175.605 52.9661 182.008 51.9122 188.412C51.6134 190.227 52.2149 191.861 53.3015 193.016C54.8802 194.693 57.4833 195.359 59.8376 194.1C63.4296 192.179 67.0216 190.258 70.6136 188.336C72.738 187.2 74.8625 186.064 76.9869 184.928C79.9672 183.334 82.6723 185.219 85.3048 186.583C89.9744 189.003 94.6441 191.423 99.3137 193.842C103.316 195.916 107.955 192.494 107.164 188.052C107.021 187.248 106.878 186.444 106.735 185.64C105.907 180.987 105.079 176.334 104.251 171.681C103.768 168.969 103.084 166.232 105.285 164.054C106.399 162.953 107.512 161.852 108.626 160.751C112.123 157.292 115.621 153.833 119.119 150.373C119.735 149.764 120.165 149.07 120.427 148.342C121.459 145.475 119.881 142.077 116.72 141.242C116.503 141.184 116.278 141.139 116.045 141.107C112.689 140.64 109.332 140.174 105.975 139.708C102.913 139.283 99.8502 138.858 96.7879 138.432C95.6202 138.27 94.5543 137.736 93.7335 136.932C93.3083 136.516 92.9489 136.027 92.6751 135.481C89.9374 130.015 87.1997 124.55 84.462 119.084C84.2938 118.749 84.1257 118.413 83.9575 118.077C82.3251 114.819 78.2504 114.217 75.7076 116.247C75.1031 116.73 74.5852 117.361 74.2073 118.141C72.0605 122.57 69.9137 126.998 67.7668 131.427C67.0835 132.837 66.4001 134.247 65.7167 135.656C64.3654 138.444 61.5574 138.674 58.8371 139.088C54.1713 139.798 49.5055 140.508 44.8396 141.219C44.0336 141.341 43.2276 141.464 42.4215 141.587C37.9666 142.265 36.2218 147.764 39.4689 150.893Z" stroke="black" stroke-width="0.27132" stroke-miterlimit="10" stroke-linecap="round" stroke-linejoin="round"/>
<path d="M91.3593 160.013C90.2061 161.305 89.0528 162.598 87.8995 163.891" stroke="black" stroke-width="0.27132" stroke-miterlimit="10"/>
<path d="M251.567 139.37L253.048 135.443C258.586 132.211 265.292 129.006 273.403 125.93L276.308 130.521L278.772 123.987C284.571 121.981 291.014 120.043 298.17 118.202C298.357 122.888 297.77 127.72 296.534 132.516L294.556 132.917L296.063 134.234C293.227 144.006 287.749 153.541 280.692 161.298L274.061 162.64L276.916 165.135C263.181 178.02 244.852 184.173 228.297 174.374C228.297 174.374 220.964 155.637 250.182 137.182L251.567 139.37Z" fill="#1A29B9"/>
<mask id="mask3_11092_64491" style="mask-type:luminance" maskUnits="userSpaceOnUse" x="227" y="118" width="72" height="62">
<path d="M251.567 139.37L253.048 135.443C258.586 132.211 265.292 129.006 273.403 125.93L276.308 130.521L278.772 123.987C284.571 121.981 291.014 120.043 298.17 118.202C298.357 122.888 297.77 127.72 296.534 132.516L294.556 132.917L296.063 134.234C293.227 144.006 287.749 153.541 280.692 161.298L274.061 162.64L276.916 165.135C263.181 178.02 244.852 184.173 228.297 174.374C228.297 174.374 220.964 155.637 250.182 137.182L251.567 139.37Z" fill="white"/>
</mask>
<g mask="url(#mask3_11092_64491)">
<path d="M255.823 119.648C286.052 123.414 222.38 161.026 247.569 159.924C272.759 158.821 237.479 187.421 237.479 187.421L222.772 169.553L228.914 137.673L257.615 116.678" fill="#0F1DA3"/>
</g>
<path d="M251.567 139.37L253.048 135.443C258.586 132.211 265.292 129.006 273.403 125.93L276.308 130.521L278.772 123.987C284.571 121.981 291.014 120.043 298.17 118.202C298.357 122.888 297.77 127.72 296.534 132.516L294.556 132.917L296.063 134.234C293.227 144.006 287.749 153.541 280.692 161.298L274.061 162.64L276.916 165.135C263.181 178.02 244.852 184.173 228.297 174.374C228.297 174.374 220.964 155.637 250.182 137.182L251.567 139.37Z" stroke="black" stroke-width="0.27132" stroke-miterlimit="10" stroke-linecap="round" stroke-linejoin="round"/>
<path d="M274.174 130.102C275.098 134.027 273.932 138.908 273.343 140.957C283.982 132.798 293.132 125.293 296.852 121.265C296.852 121.265 291.563 127.272 279.97 137.149L279.974 137.147C279.974 137.147 287.088 137.091 291.53 139.869C286.565 137.326 280.774 137.942 278.613 138.299C275.717 140.738 272.453 143.396 268.813 146.242C271.162 146.705 278.749 148.501 284.005 153.19C277.332 147.944 270.559 147.114 267.831 147.006C264.377 149.688 260.594 152.529 256.469 155.51C258.713 156.544 266.019 160.099 271.282 164.795C263.177 158.422 254.686 157.581 253.688 157.502C250.515 159.757 247.154 162.085 243.598 164.476C246.846 164.979 255.445 166.715 261.311 171.618C253.739 166.112 245.823 165.372 242.292 165.351C237.915 168.274 233.256 171.286 228.297 174.374L227.919 173.034C231.991 170.631 238.29 166.431 245.487 161.389C246.556 158.568 248.804 151.006 246.279 142.315C248.905 149.452 247.884 157.834 247.569 159.924C251.31 157.282 255.25 154.445 259.215 151.54C260.29 149.099 262.743 142.347 260.942 134.843C262.904 140.943 261.54 148.329 261.162 150.109C264.8 147.427 268.434 144.705 271.929 142.038C273.076 139.67 274.89 134.976 274.174 130.102Z" fill="#0F1DA3"/>
<path d="M244.552 151.674L246.13 149.335C245.752 145.037 244.905 140.106 243.441 134.454L239.797 134.639L242.422 130.748C241.27 126.782 239.831 122.488 238.062 117.84C235.421 119.556 233.001 121.755 230.852 124.296L231.4 125.539L230.093 125.222C225.839 130.574 222.739 137.287 221.227 144.177L223.066 148.344L220.591 147.742C218.861 160.295 222.603 172.758 234.401 178.054C234.401 178.054 247.517 174.811 246.289 151.586L244.552 151.674Z" fill="#64AFFB"/>
<path d="M244.552 151.674L246.13 149.335C245.752 145.037 244.905 140.106 243.441 134.454L239.797 134.639L242.422 130.748C241.27 126.782 239.831 122.488 238.062 117.84C235.421 119.556 233.001 121.755 230.852 124.296L231.4 125.539L230.093 125.222C225.839 130.574 222.739 137.287 221.227 144.177L223.066 148.344L220.591 147.742C218.861 160.295 222.603 172.758 234.401 178.054C234.401 178.054 247.517 174.811 246.289 151.586L244.552 151.674Z" stroke="black" stroke-width="0.27132" stroke-miterlimit="10" stroke-linecap="round" stroke-linejoin="round"/>
<path d="M240.855 135.65C238.346 136.666 236.123 139.201 235.229 140.321C235.57 131.305 236.131 123.362 236.895 119.753C236.895 119.753 235.656 124.992 234.743 135.199L234.743 135.196C234.743 135.196 232.012 131.264 228.764 129.901C232.086 131.643 233.997 135.065 234.639 136.392C234.427 138.931 234.237 141.756 234.091 144.862C232.925 143.751 228.996 140.277 224.385 139.209C229.851 140.84 232.935 144.241 234.053 145.699C233.924 148.638 233.835 151.82 233.803 155.245C232.366 154.413 227.581 151.777 222.964 150.707C229.603 152.689 233.361 157.029 233.791 157.547C233.787 160.167 233.816 162.918 233.886 165.801C232.35 164.211 228.06 160.158 223.095 158.837C229.053 160.862 232.531 164.925 233.914 166.858C234.011 170.399 234.168 174.129 234.401 178.054L235.282 177.742C235.019 174.57 234.875 169.477 234.845 163.564C235.976 161.881 239.247 157.71 244.991 155.724C240.06 157.051 235.862 160.866 234.839 161.851C234.835 158.769 234.86 155.502 234.913 152.195C235.834 150.656 238.582 146.686 243.394 144.764C239.289 146.053 235.77 149.67 234.942 150.569C234.999 147.528 235.081 144.474 235.185 141.517C236.038 139.968 237.906 137.148 240.855 135.65Z" fill="#64AEF9"/>
<path d="M255.584 143.151C255.346 143.462 255.107 143.773 254.869 144.085M228.736 147.187C229.16 147.626 229.584 148.065 230.007 148.504M248.41 172.596C247.941 172.536 247.471 172.476 247.002 172.416M273.005 154.804C272.682 154.927 272.321 154.948 271.985 154.865M282.865 127.657C282.721 128.15 282.577 128.644 282.432 129.137M285.607 142.795C285.122 143.159 284.536 143.386 283.933 143.443" stroke="black" stroke-width="0.27132" stroke-miterlimit="10"/>
<path d="M184.524 161.919L102.802 116.928V182.322C102.802 198.717 116.073 212.009 132.445 212.009H236.604C252.975 212.009 266.246 198.717 266.246 182.322V116.928L184.524 161.919Z" fill="#3344E4" stroke="black" stroke-width="0.27132" stroke-miterlimit="10" stroke-linecap="round" stroke-linejoin="round"/>
<path d="M262.462 108.224L201.261 46.9341C192.018 37.6769 177.031 37.6769 167.787 46.9341L106.271 108.541C104.05 110.765 102.802 113.782 102.802 116.927L184.524 161.919L266.246 116.927C266.129 113.652 264.776 110.542 262.462 108.224Z" fill="#1F2EC1" stroke="black" stroke-width="0.27132" stroke-miterlimit="10" stroke-linecap="round" stroke-linejoin="round"/>
<path d="M234.817 180.768H134.232C126.801 180.768 120.776 174.744 120.776 167.313V66.5422C120.776 59.1111 126.801 53.0869 134.232 53.0869H234.817C242.248 53.0869 248.272 59.1111 248.272 66.5422V167.313C248.272 174.744 242.248 180.768 234.817 180.768Z" fill="#0480FD"/>
<mask id="mask4_11092_64491" style="mask-type:luminance" maskUnits="userSpaceOnUse" x="120" y="53" width="129" height="128">
<path d="M234.817 180.768H134.232C126.801 180.768 120.776 174.744 120.776 167.313V66.5422C120.776 59.1111 126.801 53.0869 134.232 53.0869H234.817C242.248 53.0869 248.272 59.1111 248.272 66.5422V167.313C248.272 174.744 242.248 180.768 234.817 180.768Z" fill="white"/>
</mask>
<g mask="url(#mask4_11092_64491)">
<path d="M254.509 81.6094C248.803 144.471 153.221 155.9 153.221 155.9L150.368 198.76L248.803 184.474L263.069 105.897" fill="#0681FC"/>
</g>
<path d="M234.817 180.768H134.232C126.801 180.768 120.776 174.744 120.776 167.313V66.5422C120.776 59.1111 126.801 53.0869 134.232 53.0869H234.817C242.248 53.0869 248.272 59.1111 248.272 66.5422V167.313C248.272 174.744 242.248 180.768 234.817 180.768Z" stroke="black" stroke-width="0.27132" stroke-miterlimit="10" stroke-linecap="round" stroke-linejoin="round"/>
<path d="M230.874 90.989H138.174C137.013 90.989 136.071 90.0475 136.071 88.8862V81.0168C136.071 79.8555 137.013 78.9141 138.174 78.9141H230.874C232.036 78.9141 232.977 79.8555 232.977 81.0168V88.8862C232.977 90.0475 232.036 90.989 230.874 90.989ZM200.124 112.544H138.174C137.013 112.544 136.071 111.603 136.071 110.442V102.572C136.071 101.411 137.013 100.469 138.174 100.469H200.124C201.285 100.469 202.227 101.411 202.227 102.572V110.442C202.227 111.603 201.285 112.544 200.124 112.544Z" fill="#F9FCFF" stroke="black" stroke-width="0.27132" stroke-miterlimit="10" stroke-linecap="round" stroke-linejoin="round"/>
<path d="M102.802 116.928V182.322C102.802 189.646 105.462 196.338 109.851 201.514L167.169 152.365L102.802 116.928ZM266.246 116.928L201.879 152.365L259.197 201.514C263.586 196.338 266.246 189.646 266.246 182.322V116.928Z" fill="#3344E4" stroke="black" stroke-width="0.27132" stroke-miterlimit="10" stroke-linecap="round" stroke-linejoin="round"/>
<path d="M201.879 152.364L193.1 144.836C188.164 140.604 180.885 140.604 175.949 144.836L167.169 152.364L109.851 201.514C115.289 207.927 123.386 212.008 132.445 212.008H236.604C245.662 212.008 253.76 207.927 259.197 201.514L201.879 152.364Z" fill="#3344E4" stroke="black" stroke-width="0.27132" stroke-miterlimit="10" stroke-linecap="round" stroke-linejoin="round"/>
<path d="M201.879 158.165L193.1 151.368C188.164 147.548 180.885 147.548 175.948 151.368L167.169 158.165L109.851 201.514C115.289 207.304 123.386 212.009 132.445 212.009H236.604C245.662 212.009 253.76 207.304 259.197 201.514L201.879 158.165Z" fill="#ED1C24"/>
<path d="M144.611 63.0371C141.646 65.6608 138.107 67.6303 134.317 68.766M214.132 192.18C211.779 193.429 209.245 194.335 206.634 194.861" stroke="black" stroke-width="0.27132" stroke-miterlimit="10"/>
<path d="M177.471 206.201H162.496V187.079H171.877C174.966 187.079 177.471 189.583 177.471 192.673V206.201Z" fill="#BBDAF9" stroke="black" stroke-width="0.27132" stroke-miterlimit="10" stroke-linecap="round" stroke-linejoin="round"/>
<path d="M168.102 156.361C168.102 156.361 175.62 134.207 175.839 133.46C176.058 132.713 177.368 126.147 181.123 124.368C184.878 122.588 192.975 117.508 192.975 117.508C192.975 117.508 196.857 120.14 187.735 126.301C187.735 126.301 199.567 126.023 204.314 122.143C210.876 116.78 212.218 118.141 213.75 119.26L200.417 132.135C200.078 132.565 199.625 132.89 199.109 133.074L188.223 136.959L177.975 171.279L168.102 156.361Z" fill="#BBDAF9"/>
<mask id="mask5_11092_64491" style="mask-type:luminance" maskUnits="userSpaceOnUse" x="168" y="117" width="46" height="55">
<path d="M168.102 156.36C168.102 156.36 175.62 134.206 175.839 133.459C176.058 132.712 177.368 126.146 181.123 124.367C184.878 122.587 192.975 117.507 192.975 117.507C192.975 117.507 196.857 120.139 187.735 126.3C187.735 126.3 199.567 126.022 204.314 122.142C210.876 116.779 212.218 118.14 213.75 119.259L200.417 132.134C200.078 132.564 199.625 132.889 199.109 133.073L188.223 136.958L177.975 171.278L168.102 156.36Z" fill="white"/>
</mask>
<g mask="url(#mask5_11092_64491)">
<path d="M166.581 138.563C193.939 146.397 191.701 154.118 191.701 154.118L187.1 156.858L172.426 151.13" fill="#70AEED"/>
</g>
<path d="M168.102 156.361C168.102 156.361 175.62 134.207 175.839 133.46C176.058 132.713 177.368 126.147 181.123 124.368C184.878 122.588 192.975 117.508 192.975 117.508C192.975 117.508 196.857 120.14 187.735 126.301C187.735 126.301 199.567 126.023 204.314 122.143C210.876 116.78 212.218 118.141 213.75 119.26L200.417 132.135C200.078 132.565 199.625 132.89 199.109 133.074L188.223 136.959L177.975 171.279L168.102 156.361Z" stroke="black" stroke-width="0.27132" stroke-miterlimit="10" stroke-linecap="round" stroke-linejoin="round"/>
<path d="M173.289 138.563C173.289 138.563 187.364 149.986 189.063 156.062L165.523 210.153L141.984 200.536L173.289 138.563Z" fill="#2E3192"/>
<mask id="mask6_11092_64491" style="mask-type:luminance" maskUnits="userSpaceOnUse" x="141" y="138" width="49" height="73">
<path d="M173.289 138.563C173.289 138.563 187.364 149.986 189.063 156.062L165.523 210.153L141.984 200.536L173.289 138.563Z" fill="white"/>
</mask>
<g mask="url(#mask6_11092_64491)">
<path d="M218.717 167.869L175.878 147.753L179.901 194.965L218.717 167.869Z" fill="#F9FCFF" stroke="black" stroke-width="0.27132" stroke-miterlimit="10" stroke-linecap="round" stroke-linejoin="round"/>
</g>
<path d="M173.289 138.563C173.289 138.563 187.364 149.986 189.063 156.062L165.523 210.153L141.984 200.536L173.289 138.563Z" stroke="black" stroke-width="0.27132" stroke-miterlimit="10" stroke-linecap="round" stroke-linejoin="round"/>
<path d="M117.65 89.6675C123.117 86.8601 126.147 81.8526 124.417 78.4831C122.686 75.1136 116.852 74.658 111.384 77.4655C105.917 80.2729 102.887 85.2803 104.617 88.6498C106.348 92.0193 112.182 92.475 117.65 89.6675Z" fill="#1D2AA6" stroke="black" stroke-width="0.27132" stroke-miterlimit="10" stroke-linecap="round" stroke-linejoin="round"/>
<path d="M112.132 94.249C117.297 97.5733 140.429 122.077 140.429 122.077L108.279 134.902L112.132 94.249Z" fill="#1D2AA6" stroke="black" stroke-width="0.27132" stroke-miterlimit="10" stroke-linecap="round" stroke-linejoin="round"/>
<path d="M113.457 140.105L130.81 137.14L113.275 101.688L97.8605 109.589L113.457 140.105Z" fill="#BBDAF9"/>
<mask id="mask7_11092_64491" style="mask-type:luminance" maskUnits="userSpaceOnUse" x="97" y="101" width="34" height="40">
<path d="M113.457 140.105L130.81 137.14L113.275 101.688L97.8605 109.589L113.457 140.105Z" fill="white"/>
</mask>
<g mask="url(#mask7_11092_64491)">
<path d="M107.22 111.48C123.459 109.582 113.733 126.392 129.097 123.067C142.334 120.202 124.71 108.418 124.71 108.418L114.135 108.718L108.807 109.972" fill="#70AEED"/>
</g>
<path d="M113.457 140.105L130.81 137.14L113.275 101.688L97.8605 109.589L113.457 140.105Z" stroke="black" stroke-width="0.27132" stroke-miterlimit="10" stroke-linecap="round" stroke-linejoin="round"/>
<path d="M101.662 108.885C93.4659 102.645 97.9323 92.8828 97.9323 92.8828L115.09 79.0938C131.383 96.931 134.124 116.8 112.869 113.182" fill="#BBDAF9"/>
<path d="M101.662 108.885C93.4659 102.645 97.9323 92.8828 97.9323 92.8828L115.09 79.0938C131.383 96.931 134.124 116.8 112.869 113.182" stroke="black" stroke-width="0.27132" stroke-miterlimit="10" stroke-linecap="round" stroke-linejoin="round"/>
<path d="M86.2379 134.902L121.559 130.056L103.11 104.432C124.733 89.6933 115.097 77.6709 115.097 77.6709C115.097 77.6709 95.228 86.2143 92.4101 89.2087C83.109 99.0924 86.2379 134.902 86.2379 134.902Z" fill="#1D2AA6" stroke="black" stroke-width="0.27132" stroke-miterlimit="10" stroke-linecap="round" stroke-linejoin="round"/>
<path d="M110.947 101.925C90.8276 94.3318 92.0661 109.95 108.616 111.666L110.947 101.925Z" fill="#BBDAF9"/>
<path d="M110.947 101.925C90.8276 94.3318 92.0661 109.95 108.616 111.666" stroke="black" stroke-width="0.27132" stroke-miterlimit="10" stroke-linecap="round" stroke-linejoin="round"/>
<path d="M100.414 110.066C99.7685 111.547 99.7926 113.369 100.63 115.007C102.04 117.766 105.222 118.957 107.737 117.668C110.252 116.379 111.148 113.097 109.738 110.339C108.328 107.58 105.146 106.389 102.631 107.678" stroke="white" stroke-width="0.27132" stroke-miterlimit="10" stroke-linecap="round" stroke-linejoin="round"/>
<path d="M106.357 128.814L106.542 123.068C103.768 112.306 121.774 117.257 130.81 137.14L120.61 141.507L103.742 128.184" fill="#F9FCFF"/>
<path d="M106.357 128.814L106.542 123.068C103.768 112.306 121.774 117.257 130.81 137.14L120.61 141.507L103.742 128.184" stroke="black" stroke-width="0.27132" stroke-miterlimit="10" stroke-linecap="round" stroke-linejoin="round"/>
<path d="M128.318 211.94C134.507 206.2 156.049 196.925 130.81 137.139L106.542 123.067C84.5397 137.139 61.5662 211.404 61.5662 211.404L128.318 211.94Z" fill="#2E3192"/>
<mask id="mask8_11092_64491" style="mask-type:luminance" maskUnits="userSpaceOnUse" x="61" y="123" width="82" height="89">
<path d="M128.318 211.94C134.507 206.2 156.049 196.925 130.81 137.139L106.542 123.067C84.5397 137.139 61.5662 211.404 61.5662 211.404L128.318 211.94Z" fill="white"/>
</mask>
<g mask="url(#mask8_11092_64491)">
<path d="M63.5496 153.841L39.8922 194.876H87.2071L63.5496 153.841Z" fill="#F9FCFF" stroke="black" stroke-width="0.27132" stroke-miterlimit="10" stroke-linecap="round" stroke-linejoin="round"/>
<path d="M85.7318 112.068L56.9467 141.961H114.517L85.7318 112.068Z" fill="#F9FCFF" stroke="black" stroke-width="0.27132" stroke-miterlimit="10" stroke-linecap="round" stroke-linejoin="round"/>
<path d="M170.041 132.273L127.291 113.015L131.168 158.508L170.041 132.273Z" fill="#F9FCFF" stroke="black" stroke-width="0.27132" stroke-miterlimit="10" stroke-linecap="round" stroke-linejoin="round"/>
<path d="M149.48 211.943L106.641 191.826L110.665 239.038L149.48 211.943Z" fill="#F9FCFF" stroke="black" stroke-width="0.27132" stroke-miterlimit="10" stroke-linecap="round" stroke-linejoin="round"/>
</g>
<mask id="mask9_11092_64491" style="mask-type:luminance" maskUnits="userSpaceOnUse" x="61" y="123" width="82" height="89">
<path d="M128.318 211.94C134.507 206.2 156.049 196.925 130.81 137.139L106.542 123.067C84.5397 137.139 61.5662 211.404 61.5662 211.404L128.318 211.94Z" fill="white"/>
</mask>
<g mask="url(#mask9_11092_64491)">
<path opacity="0.18" d="M107.385 164.572C144.953 221.471 76.9117 211.94 76.9117 211.94L140.655 226.368L163.952 218.267L152.951 187.078L107.385 164.572Z" fill="#1D2AA6"/>
</g>
<path d="M128.318 211.94C134.507 206.2 156.049 196.925 130.81 137.139L106.542 123.067C84.5397 137.139 61.5662 211.404 61.5662 211.404L128.318 211.94Z" stroke="black" stroke-width="0.27132" stroke-miterlimit="10" stroke-linecap="round" stroke-linejoin="round"/>
<path d="M107.385 164.573L146.616 207.95C148.914 210.491 152.177 211.94 155.6 211.94H169.888C176.529 211.94 180.194 204.221 176.004 199.063L125.823 137.287" fill="#2E3192"/>
<mask id="mask10_11092_64491" style="mask-type:luminance" maskUnits="userSpaceOnUse" x="107" y="137" width="71" height="75">
<path d="M107.385 164.573L146.616 207.95C148.914 210.491 152.177 211.94 155.6 211.94H169.888C176.529 211.94 180.194 204.221 176.004 199.063L125.823 137.287" fill="white"/>
</mask>
<g mask="url(#mask10_11092_64491)">
<path d="M125.102 167.425L101.444 208.46H148.759L125.102 167.425Z" fill="#F9FCFF" stroke="black" stroke-width="0.27132" stroke-miterlimit="10" stroke-linecap="round" stroke-linejoin="round"/>
</g>
<path d="M107.385 164.573L146.616 207.95C148.914 210.491 152.177 211.94 155.6 211.94H169.888C176.529 211.94 180.194 204.221 176.004 199.063L125.823 137.287" stroke="black" stroke-width="0.27132" stroke-miterlimit="10" stroke-linecap="round" stroke-linejoin="round"/>
<path d="M121.587 96.7115C121.148 97.072 120.5 97.0078 120.14 96.5681L119.039 95.2234C118.679 94.7837 118.743 94.135 119.182 93.7745C119.621 93.4139 120.269 93.4782 120.629 93.9179L121.73 95.2625C122.09 95.7022 122.026 96.351 121.587 96.7115ZM117.709 90.5301C115.22 92.3952 115.502 93.831 117.134 92.7667C118.765 91.7024 119.335 89.3115 117.709 90.5301Z" fill="black"/>
<path d="M123.368 93.4575C127.832 92.933 128.499 97.0085 125.869 97.942L123.368 93.4575Z" fill="#BBDAF9"/>
<path d="M123.368 93.4575C127.832 92.933 128.499 97.0085 125.869 97.942" stroke="black" stroke-width="0.27132" stroke-miterlimit="10" stroke-linecap="round" stroke-linejoin="round"/>
<path opacity="0.27" d="M117.392 105.784C119.299 105.784 120.845 104.236 120.845 102.326C120.845 100.416 119.299 98.8682 117.392 98.8682C115.485 98.8682 113.939 100.416 113.939 102.326C113.939 104.236 115.485 105.784 117.392 105.784Z" fill="#70AEED"/>
<path d="M122.845 101.14C124.816 102.674 125.656 101.011 125.656 101.011L122.845 101.14Z" fill="#BBDAF9"/>
<path d="M122.845 101.14C124.816 102.674 125.656 101.011 125.656 101.011" stroke="#424DBA" stroke-width="0.27132" stroke-miterlimit="10" stroke-linecap="round" stroke-linejoin="round"/>
<path d="M104.823 102.839C103.682 102.658 102.468 103.023 101.616 103.804C101.215 104.171 100.876 104.737 101.088 105.238M107.315 88.8564C106.865 90.2591 106.325 91.6328 105.699 92.9661M93.2663 116.005C92.8778 118.99 93.0479 122.047 93.7652 124.97M126.59 116.379C127.212 117.084 127.834 117.79 128.455 118.496M87.3079 168.799C89.2043 171.877 91.8779 174.47 95.0101 176.27M184.524 135.379C184.968 135.598 185.411 135.816 185.855 136.035" stroke="black" stroke-width="0.27132" stroke-miterlimit="10"/>
</g>
</svg>
