<svg width="369" height="116" viewBox="0 0 369 116" fill="none" xmlns="http://www.w3.org/2000/svg">
<rect x="4.00195" y="4" width="360.276" height="107.276" rx="16.3189" fill="url(#paint0_linear_11581_1860)"/>
<rect x="4.00195" y="4" width="360.276" height="107.276" rx="16.3189" stroke="url(#paint1_linear_11581_1860)" stroke-width="8"/>
<path d="M153.189 69.5011C153.189 69.8604 153.118 70.1941 152.977 70.502C152.848 70.81 152.669 71.0795 152.438 71.3105C152.22 71.5286 151.957 71.7019 151.649 71.8302C151.341 71.9585 151.013 72.0227 150.667 72.0227C150.359 72.0227 150.045 71.9649 149.724 71.8494C149.416 71.7339 149.14 71.5479 148.896 71.2912L130.61 52.1969V71.6377H125.606V46.1721C125.606 45.6588 125.747 45.1969 126.029 44.7862C126.324 44.3628 126.696 44.0484 127.146 43.8431C127.62 43.6506 128.108 43.6057 128.608 43.7083C129.109 43.7982 129.539 44.0291 129.898 44.4013L148.184 63.4764V44.0356H153.189V69.5011ZM181.715 60.3582H165.912V55.3151H181.715V60.3582ZM183.967 71.6377H165.912C165.219 71.6377 164.462 71.5158 163.64 71.272C162.819 71.0282 162.056 70.6304 161.35 70.0786C160.657 69.514 160.073 68.7889 159.598 67.9035C159.136 67.0053 158.905 65.9081 158.905 64.612V46.5571C158.905 46.2106 158.969 45.8834 159.098 45.5754C159.226 45.2675 159.399 44.998 159.617 44.767C159.848 44.536 160.118 44.3564 160.426 44.228C160.734 44.0997 161.068 44.0356 161.427 44.0356H183.967V49.0401H163.91V64.612C163.91 65.2665 164.083 65.7669 164.43 66.1134C164.776 66.4599 165.283 66.6331 165.95 66.6331H183.967V71.6377ZM201.425 53.8907L209.856 44.0356H216.689L204.813 57.8751L216.612 71.6377H209.817L201.425 61.8595L193.071 71.6377H186.257L198.037 57.8751L186.219 44.0356H192.994L201.425 53.8907ZM244.791 49.0401H233.762V71.6377H228.758V49.0401H217.709V44.0356H244.791V49.0401Z" fill="white"/>
<defs>
<linearGradient id="paint0_linear_11581_1860" x1="39.7441" y1="8" x2="329.788" y2="90.016" gradientUnits="userSpaceOnUse">
<stop stop-color="#00047D"/>
<stop offset="1" stop-color="#0008CE"/>
</linearGradient>
<linearGradient id="paint1_linear_11581_1860" x1="-41.7897" y1="-34.2142" x2="419.907" y2="90.925" gradientUnits="userSpaceOnUse">
<stop stop-color="#000DFF"/>
<stop offset="0.505811" stop-color="#343EFF"/>
<stop offset="1" stop-color="white"/>
</linearGradient>
</defs>
</svg>
