<svg width="353" height="100" viewBox="0 0 353 100" fill="none" xmlns="http://www.w3.org/2000/svg">
<rect x="1.23385" y="1.23189" width="349.812" height="96.812" rx="11.0871" fill="url(#paint0_linear_11581_1860)"/>
<rect x="1.23385" y="1.23189" width="349.812" height="96.812" rx="11.0871" stroke="url(#paint1_linear_11581_1860)" stroke-width="2.46379"/>
<path d="M145.189 61.5011C145.189 61.8604 145.118 62.1941 144.977 62.502C144.848 62.81 144.669 63.0795 144.438 63.3105C144.22 63.5286 143.957 63.7019 143.649 63.8302C143.341 63.9585 143.013 64.0227 142.667 64.0227C142.359 64.0227 142.045 63.9649 141.724 63.8494C141.416 63.7339 141.14 63.5479 140.896 63.2912L122.61 44.1969V63.6377H117.606V38.1721C117.606 37.6588 117.747 37.1969 118.029 36.7862C118.324 36.3628 118.696 36.0484 119.146 35.8431C119.62 35.6506 120.108 35.6057 120.608 35.7083C121.109 35.7982 121.539 36.0291 121.898 36.4013L140.184 55.4764V36.0356H145.189V61.5011ZM173.715 52.3582H157.912V47.3151H173.715V52.3582ZM175.967 63.6377H157.912C157.219 63.6377 156.462 63.5158 155.64 63.272C154.819 63.0282 154.056 62.6304 153.35 62.0786C152.657 61.514 152.073 60.7889 151.598 59.9035C151.136 59.0053 150.905 57.9081 150.905 56.612V38.5571C150.905 38.2106 150.969 37.8834 151.098 37.5754C151.226 37.2675 151.399 36.998 151.617 36.767C151.848 36.536 152.118 36.3564 152.426 36.228C152.734 36.0997 153.068 36.0356 153.427 36.0356H175.967V41.0401H155.91V56.612C155.91 57.2665 156.083 57.7669 156.43 58.1134C156.776 58.4599 157.283 58.6331 157.95 58.6331H175.967V63.6377ZM193.425 45.8907L201.856 36.0356H208.689L196.813 49.8751L208.612 63.6377H201.817L193.425 53.8595L185.071 63.6377H178.257L190.037 49.8751L178.219 36.0356H184.994L193.425 45.8907ZM236.791 41.0401H225.762V63.6377H220.758V41.0401H209.709V36.0356H236.791V41.0401Z" fill="white"/>
<defs>
<linearGradient id="paint0_linear_11581_1860" x1="31.7441" y1="-6.95303e-07" x2="321.788" y2="82.016" gradientUnits="userSpaceOnUse">
<stop stop-color="#00047D"/>
<stop offset="1" stop-color="#0008CE"/>
</linearGradient>
<linearGradient id="paint1_linear_11581_1860" x1="-49.7897" y1="-42.2142" x2="411.907" y2="82.925" gradientUnits="userSpaceOnUse">
<stop stop-color="#000DFF"/>
<stop offset="0.505811" stop-color="#343EFF"/>
<stop offset="1" stop-color="white"/>
</linearGradient>
</defs>
</svg>
