<svg width="534" height="117" viewBox="0 0 534 117" fill="none" xmlns="http://www.w3.org/2000/svg">
<rect x="4" y="4.86572" width="525.276" height="107.276" rx="16.3189" fill="url(#paint0_linear_11125_373)" fill-opacity="0.2"/>
<rect x="4" y="4.86572" width="525.276" height="107.276" rx="16.3189" stroke="url(#paint1_linear_11125_373)" stroke-width="8"/>
<path d="M62.5091 64.3806C62.5091 65.3687 62.3808 66.2605 62.1241 67.0561C61.8803 67.8389 61.5531 68.5318 61.1425 69.135C60.7318 69.7381 60.2506 70.2514 59.6988 70.6748C59.147 71.0983 58.576 71.4448 57.9857 71.7142C57.3954 71.9837 56.7923 72.1826 56.1764 72.3109C55.5733 72.4393 55.0022 72.5034 54.4633 72.5034H35.1572V67.4988H54.4633C55.4257 67.4988 56.17 67.2165 56.6961 66.6519C57.235 66.0873 57.5045 65.3302 57.5045 64.3806C57.5045 63.9187 57.4339 63.4952 57.2928 63.1102C57.1516 62.7253 56.9463 62.3916 56.6768 62.1093C56.4202 61.827 56.0994 61.6088 55.7144 61.4549C55.3423 61.3009 54.9252 61.2239 54.4633 61.2239H42.9528C42.1443 61.2239 41.2717 61.0827 40.335 60.8004C39.3982 60.5053 38.5256 60.0369 37.7172 59.3953C36.9216 58.7537 36.2543 57.9132 35.7154 56.8738C35.1893 55.8343 34.9262 54.564 34.9262 53.0626C34.9262 51.5612 35.1893 50.2972 35.7154 49.2707C36.2543 48.2312 36.9216 47.3907 37.7172 46.7491C38.5256 46.0947 39.3982 45.6263 40.335 45.344C41.2717 45.0489 42.1443 44.9013 42.9528 44.9013H59.9876V49.9059H42.9528C42.0032 49.9059 41.2589 50.1946 40.72 50.772C40.1938 51.3495 39.9308 52.113 39.9308 53.0626C39.9308 54.025 40.1938 54.7885 40.72 55.3531C41.2589 55.9049 42.0032 56.1808 42.9528 56.1808H54.4633H54.5018C55.0407 56.1936 55.6118 56.2706 56.2149 56.4118C56.818 56.5401 57.4147 56.7454 58.005 57.0277C58.6081 57.3101 59.1791 57.6694 59.7181 58.1056C60.257 58.5291 60.7318 59.0424 61.1425 59.6455C61.5659 60.2486 61.8996 60.9416 62.1434 61.7243C62.3872 62.5071 62.5091 63.3925 62.5091 64.3806ZM91.3046 49.9059H80.2753V72.5034H75.2707V49.9059H64.2222V44.9013H91.3046V49.9059ZM121.12 72.5034H116.116V65.728H98.5228V72.5034H93.5182V58.7023C93.5182 56.6877 93.8647 54.8334 94.5576 53.1396C95.2505 51.4457 96.213 49.9893 97.4448 48.7702C98.6767 47.5511 100.133 46.6016 101.814 45.9214C103.495 45.2413 105.33 44.9013 107.319 44.9013H118.599C118.945 44.9013 119.272 44.9654 119.58 45.0938C119.888 45.2221 120.158 45.4017 120.389 45.6327C120.62 45.8637 120.8 46.1332 120.928 46.4411C121.056 46.7491 121.12 47.0763 121.12 47.4228V72.5034ZM98.5228 60.7234H116.116V49.9059H107.319C107.165 49.9059 106.838 49.9315 106.338 49.9828C105.85 50.0213 105.279 50.1304 104.624 50.3101C103.983 50.4897 103.303 50.7656 102.584 51.1377C101.866 51.5099 101.205 52.0232 100.602 52.6776C99.9985 53.3321 99.498 54.1533 99.1002 55.1414C98.7152 56.1167 98.5228 57.3036 98.5228 58.7023V60.7234ZM154.535 54.179C154.535 55.3211 154.394 56.3412 154.112 57.2395C153.83 58.1377 153.445 58.9333 152.957 59.6263C152.482 60.3064 151.931 60.8902 151.302 61.3779C150.673 61.8655 150.012 62.2697 149.319 62.5905C148.639 62.8985 147.946 63.1231 147.24 63.2642C146.547 63.4054 145.893 63.4759 145.277 63.4759L155.729 72.5034H147.991L137.558 63.4759H133.959V58.4714H145.277C145.906 58.42 146.477 58.2917 146.99 58.0864C147.516 57.8683 147.965 57.5795 148.337 57.2202C148.722 56.8609 149.018 56.431 149.223 55.9306C149.428 55.4173 149.531 54.8334 149.531 54.179V51.0223C149.531 50.7399 149.492 50.5282 149.415 50.3871C149.351 50.2331 149.261 50.124 149.146 50.0598C149.043 49.9828 148.928 49.9379 148.799 49.9251C148.684 49.9123 148.575 49.9059 148.472 49.9059H131.957V72.5034H126.953V47.4228C126.953 47.0763 127.017 46.7491 127.145 46.4411C127.273 46.1332 127.447 45.8637 127.665 45.6327C127.896 45.4017 128.165 45.2221 128.473 45.0938C128.781 44.9654 129.115 44.9013 129.474 44.9013H148.472C149.589 44.9013 150.532 45.1066 151.302 45.5172C152.072 45.915 152.694 46.4219 153.169 47.0378C153.656 47.641 154.003 48.2954 154.208 49.0012C154.426 49.707 154.535 50.3678 154.535 50.9838V54.179ZM184.274 49.9059H173.245V72.5034H168.24V49.9059H157.192V44.9013H184.274V49.9059ZM225.716 72.5034H202.887C202.528 72.5034 202.194 72.4393 201.886 72.3109C201.578 72.1826 201.309 72.0094 201.078 71.7912C200.86 71.5602 200.687 71.2908 200.558 70.9828C200.43 70.6748 200.366 70.3412 200.366 69.9819V44.9013H205.37V67.4988H225.716V72.5034ZM254.973 69.9819C254.973 70.3412 254.909 70.6748 254.781 70.9828C254.653 71.2908 254.473 71.5602 254.242 71.7912C254.011 72.0094 253.741 72.1826 253.434 72.3109C253.126 72.4393 252.798 72.5034 252.452 72.5034H241.172C240.107 72.5034 239.029 72.3879 237.939 72.1569C236.848 71.926 235.789 71.5731 234.763 71.0983C233.749 70.6107 232.793 69.9947 231.895 69.2504C230.996 68.5062 230.207 67.6272 229.527 66.6134C228.86 65.5868 228.334 64.4191 227.949 63.1102C227.564 61.7885 227.371 60.3192 227.371 58.7023V44.9013H232.376V58.7023C232.376 60.1139 232.568 61.3073 232.953 62.2825C233.351 63.2578 233.852 64.0726 234.455 64.7271C235.058 65.3815 235.719 65.8948 236.437 66.267C237.156 66.6391 237.836 66.915 238.478 67.0946C239.132 67.2743 239.703 67.3898 240.191 67.4411C240.691 67.4796 241.018 67.4988 241.172 67.4988H249.969V44.9013H254.973V69.9819ZM285.521 72.5034H267.466C267.004 72.5034 266.503 72.4521 265.964 72.3494C265.438 72.2339 264.912 72.0607 264.386 71.8297C263.873 71.5987 263.378 71.3036 262.904 70.9443C262.429 70.5722 262.005 70.1295 261.633 69.6162C261.274 69.09 260.985 68.4869 260.767 67.8068C260.549 67.1139 260.44 66.3375 260.44 65.4778V51.9269C260.44 51.465 260.491 50.9709 260.594 50.4448C260.709 49.9059 260.883 49.3797 261.114 48.8664C261.345 48.3403 261.646 47.8399 262.018 47.3651C262.39 46.8903 262.833 46.4732 263.346 46.1139C263.873 45.7418 264.476 45.4466 265.156 45.2285C265.836 45.0104 266.606 44.9013 267.466 44.9013H285.521V49.9059H267.466C266.811 49.9059 266.311 50.0791 265.964 50.4256C265.618 50.772 265.444 51.2853 265.444 51.9654V65.4778C265.444 66.1194 265.618 66.6198 265.964 66.9791C266.323 67.3256 266.824 67.4988 267.466 67.4988H285.521V72.5034ZM319.186 72.5034H312.083L300.823 61.2239H297.301V56.1808H300.823L312.083 44.9013H319.186L305 58.7023L319.186 72.5034ZM295.299 72.5034H290.294V44.9013H295.299V72.5034ZM348.617 54.1405C348.617 55.2826 348.469 56.3027 348.174 57.201C347.892 58.0992 347.513 58.8948 347.038 59.5878C346.563 60.2679 346.005 60.8517 345.364 61.3394C344.735 61.827 344.08 62.2312 343.4 62.552C342.72 62.86 342.027 63.0846 341.321 63.2257C340.629 63.3669 339.974 63.4374 339.358 63.4374H337.337V72.5034H332.294V63.4374H330.292C329.676 63.4374 329.015 63.3669 328.31 63.2257C327.617 63.0846 326.924 62.86 326.231 62.552C325.551 62.2312 324.896 61.827 324.267 61.3394C323.639 60.8517 323.08 60.2679 322.593 59.5878C322.118 58.8948 321.733 58.0992 321.438 57.201C321.156 56.2899 321.014 55.2697 321.014 54.1405V44.9013H326.019V54.1405C326.019 54.7949 326.122 55.3852 326.327 55.9113C326.532 56.4246 326.821 56.8673 327.193 57.2395C327.565 57.6116 328.014 57.9003 328.541 58.1056C329.08 58.2981 329.676 58.3944 330.331 58.3944H339.358C339.833 58.3174 340.321 58.2211 340.821 58.1056C341.321 57.9773 341.777 57.7656 342.188 57.4705C342.598 57.1753 342.938 56.7647 343.208 56.2386C343.477 55.7124 343.612 55.0131 343.612 54.1405V44.9013H348.617V54.1405ZM393.138 60.9544C393.138 62.6354 392.843 64.1817 392.253 65.5933C391.675 67.0048 390.873 68.2239 389.847 69.2504C388.82 70.2642 387.601 71.0598 386.189 71.6372C384.778 72.2147 383.244 72.5034 381.589 72.5034H368.077C367.717 72.5034 367.384 72.4393 367.076 72.3109C366.768 72.1826 366.498 72.0094 366.267 71.7912C366.049 71.5602 365.876 71.2908 365.748 70.9828C365.619 70.6748 365.555 70.3412 365.555 69.9819V47.4228C365.555 47.0763 365.619 46.7491 365.748 46.4411C365.876 46.1332 366.049 45.8637 366.267 45.6327C366.498 45.4017 366.768 45.2221 367.076 45.0938C367.384 44.9654 367.717 44.9013 368.077 44.9013H381.589C383.244 44.9013 384.778 45.19 386.189 45.7675C387.601 46.3449 388.82 47.1469 389.847 48.1735C390.873 49.1872 391.675 50.4063 392.253 51.8307C392.843 53.2422 393.138 54.7821 393.138 56.4503V60.9544ZM388.133 56.4503C388.133 55.475 387.973 54.5832 387.652 53.7748C387.344 52.9663 386.902 52.2798 386.324 51.7152C385.747 51.1377 385.054 50.695 384.245 50.3871C383.45 50.0663 382.564 49.9059 381.589 49.9059H370.56V67.4988H381.589C382.564 67.4988 383.45 67.3449 384.245 67.0369C385.054 66.7161 385.747 66.2734 386.324 65.7087C386.902 65.1313 387.344 64.4448 387.652 63.6492C387.973 62.8407 388.133 61.9425 388.133 60.9544V56.4503ZM425.629 54.179C425.629 55.3211 425.488 56.3412 425.206 57.2395C424.924 58.1377 424.539 58.9333 424.051 59.6263C423.576 60.3064 423.024 60.8902 422.396 61.3779C421.767 61.8655 421.106 62.2697 420.413 62.5905C419.733 62.8985 419.04 63.1231 418.334 63.2642C417.641 63.4054 416.987 63.4759 416.371 63.4759L426.823 72.5034H419.085L408.652 63.4759H405.053V58.4714H416.371C417 58.42 417.571 58.2917 418.084 58.0864C418.61 57.8683 419.059 57.5795 419.431 57.2202C419.816 56.8609 420.111 56.431 420.317 55.9306C420.522 55.4173 420.625 54.8334 420.625 54.179V51.0223C420.625 50.7399 420.586 50.5282 420.509 50.3871C420.445 50.2331 420.355 50.124 420.24 50.0598C420.137 49.9828 420.022 49.9379 419.893 49.9251C419.778 49.9123 419.669 49.9059 419.566 49.9059H403.051V72.5034H398.046V47.4228C398.046 47.0763 398.111 46.7491 398.239 46.4411C398.367 46.1332 398.54 45.8637 398.759 45.6327C398.99 45.4017 399.259 45.2221 399.567 45.0938C399.875 44.9654 400.209 44.9013 400.568 44.9013H419.566C420.682 44.9013 421.626 45.1066 422.396 45.5172C423.165 45.915 423.788 46.4219 424.263 47.0378C424.75 47.641 425.097 48.2954 425.302 49.0012C425.52 49.707 425.629 50.3678 425.629 50.9838V54.179ZM457.736 72.5034H452.731V65.728H435.138V72.5034H430.133V58.7023C430.133 56.6877 430.48 54.8334 431.173 53.1396C431.866 51.4457 432.828 49.9893 434.06 48.7702C435.292 47.5511 436.748 46.6016 438.429 45.9214C440.11 45.2413 441.945 44.9013 443.934 44.9013H455.214C455.56 44.9013 455.888 44.9654 456.196 45.0938C456.504 45.2221 456.773 45.4017 457.004 45.6327C457.235 45.8637 457.415 46.1332 457.543 46.4411C457.671 46.7491 457.736 47.0763 457.736 47.4228V72.5034ZM435.138 60.7234H452.731V49.9059H443.934C443.78 49.9059 443.453 49.9315 442.953 49.9828C442.465 50.0213 441.894 50.1304 441.24 50.3101C440.598 50.4897 439.918 50.7656 439.199 51.1377C438.481 51.5099 437.82 52.0232 437.217 52.6776C436.614 53.3321 436.113 54.1533 435.715 55.1414C435.33 56.1167 435.138 57.3036 435.138 58.7023V60.7234ZM498.811 44.9013L494.192 70.7711C494.089 71.2844 493.858 71.7271 493.499 72.0992C493.14 72.4713 492.703 72.7087 492.19 72.8114C491.664 72.9012 491.163 72.8435 490.689 72.6382C490.227 72.4328 489.861 72.112 489.592 71.6757L480.429 56.6235L471.248 71.6757C471.03 72.0479 470.728 72.3366 470.343 72.5419C469.971 72.7472 469.567 72.8499 469.131 72.8499C468.527 72.8499 467.995 72.6574 467.533 72.2724C467.071 71.8875 466.789 71.387 466.686 70.7711L462.028 44.9013H467.109L470.42 63.1295L478.312 50.541C478.53 50.1689 478.825 49.8802 479.197 49.6749C479.582 49.4696 479.993 49.3669 480.429 49.3669C480.866 49.3669 481.27 49.4696 481.642 49.6749C482.014 49.8802 482.322 50.1689 482.566 50.541L490.419 63.1295L493.73 44.9013H498.811Z" fill="white"/>
<defs>
<linearGradient id="paint0_linear_11125_373" x1="54.6097" y1="8.86572" x2="446.924" y2="171.761" gradientUnits="userSpaceOnUse">
<stop stop-color="#00047D"/>
<stop offset="1" stop-color="#0008CE"/>
</linearGradient>
<linearGradient id="paint1_linear_11125_373" x1="-65.1132" y1="-33.3485" x2="563.126" y2="216.687" gradientUnits="userSpaceOnUse">
<stop stop-color="#000DFF"/>
<stop offset="0.505811" stop-color="#343EFF"/>
<stop offset="1" stop-color="white"/>
</linearGradient>
</defs>
</svg>
