<svg width="337" height="336" viewBox="0 0 337 336" fill="none" xmlns="http://www.w3.org/2000/svg">
<path d="M135.149 294.013C113.967 294.013 95.8936 290.371 86.0723 287.902L85.1147 287.66L85.3365 286.699C86.4991 281.628 87.7355 276.444 89.0123 271.29C91.9221 259.513 94.9696 248.082 98.0709 237.32C99.5896 232.055 101.115 226.975 102.597 222.22C112.895 189.235 126.728 139.084 129.396 129.367L131.358 129.82L130.76 132.985C132.403 135.868 135.132 139.86 136.442 140.267C137.47 140.398 141.67 136.725 145.413 132.381L146.485 131.137L147.11 132.653C149.143 137.582 151.888 143.23 152.953 144.168C154.546 143.832 161.424 138.708 168.893 132.276L171.319 130.187L170.536 133.281C168.886 139.732 164.424 158.834 158.571 196.758C156.693 208.925 155.016 222.546 153.592 237.24C151.885 254.812 150.83 270.873 150.248 281.256C150.03 285.193 149.838 288.987 149.677 292.535L149.637 293.425L148.746 293.496C144.11 293.855 139.56 294.013 135.149 294.013ZM87.5205 286.185C99.4283 289.108 122.165 293.395 147.701 291.551C147.853 288.254 148.031 284.757 148.232 281.141C148.817 270.742 149.869 254.651 151.582 237.045C153.014 222.314 154.694 208.656 156.579 196.452C161.713 163.185 165.788 144.346 167.835 135.815C166.323 137.078 164.273 138.765 162.186 140.394C153.813 146.94 152.829 146.412 152.11 146.029C150.416 145.118 147.513 138.778 145.864 134.901C145.087 135.754 143.962 136.95 142.742 138.13C138.435 142.289 136.792 142.484 135.841 142.188C133.875 141.574 131.291 137.76 129.83 135.371C125.243 151.973 113.53 193.953 104.519 222.818C103.04 227.556 101.522 232.623 100.006 237.875C96.9117 248.613 93.8709 260.017 90.9679 271.77C89.7784 276.588 88.6192 281.43 87.5239 286.181L87.5205 286.185Z" fill="#2E3192"/>
<path d="M129.692 128.617C126.705 130.005 123.07 131.776 119.615 133.681C119.481 133.755 119.35 133.825 119.219 133.903C119.068 133.987 118.92 134.067 118.772 134.151C118.476 134.319 118.184 134.487 117.892 134.655C117.596 134.827 117.3 134.995 117.011 135.166C116.753 135.321 116.494 135.472 116.239 135.63C116.219 135.643 116.195 135.657 116.175 135.67C116.034 135.757 115.896 135.841 115.758 135.925C115.499 136.08 115.247 136.241 114.999 136.399C114.707 136.584 114.424 136.769 114.149 136.95C113.89 137.122 113.638 137.293 113.386 137.464C113.161 137.616 112.936 137.77 112.721 137.928C112.667 137.965 112.617 138.002 112.563 138.042C112.472 138.106 112.385 138.17 112.301 138.23C112.183 138.314 112.069 138.398 111.955 138.486C111.84 138.573 111.73 138.657 111.619 138.741C111.4 138.912 111.185 139.077 110.98 139.245C110.473 139.658 110.009 140.068 109.596 140.468C109.589 140.472 109.583 140.478 109.579 140.485C109.418 140.643 109.263 140.797 109.119 140.955C109.042 141.043 108.964 141.127 108.89 141.211C108.82 141.291 108.753 141.372 108.685 141.449C108.558 141.604 108.437 141.762 108.323 141.916C108.262 142.004 108.205 142.088 108.151 142.172C108.104 142.242 108.064 142.309 108.023 142.377C107.755 142.83 107.58 143.264 107.516 143.68C106.525 150.158 110.12 159.815 110.12 159.815C110.12 159.815 96.8649 167.335 96.6768 171.552C96.586 173.645 95.4403 184.944 95.5848 199.967C95.6889 211.196 96.5155 224.508 99.0321 237.606C95.4302 250.112 92.3558 261.939 89.9836 271.538C88.4515 277.731 87.215 282.999 86.3145 286.931C85.2024 291.779 84.6009 294.588 84.6009 294.588L57.3009 285.576L32.9409 277.536L46.3171 247.424C48.79 247.911 51.851 247.353 55.0766 245.508C62.3443 241.352 59.3505 235.764 53.6217 230.98L72.5251 188.422C72.2731 188.509 57.7512 193.482 46.6968 185.304C35.5449 177.052 44.0961 160.732 47.9971 153.582C51.9014 146.432 83.1192 102.057 83.1192 102.057L85.3737 102.779L103.037 108.437L104.865 109.025L94.4558 137.263C94.4558 137.263 100.961 132.434 105.792 131.702C109.972 131.067 125.549 129.105 129.682 128.591C129.706 128.587 129.716 128.614 129.695 128.628L129.692 128.617Z" fill="#2E3192"/>
<path d="M98.8402 241.913L98.0472 237.787C95.8767 226.494 94.7108 213.77 94.5831 199.97C94.4655 187.683 95.2148 177.771 95.534 173.541C95.6079 172.573 95.6616 171.871 95.6751 171.501C95.8599 167.328 105.543 161.317 108.897 159.355C108.047 156.855 105.668 149.147 106.525 143.522C106.605 142.992 106.82 142.43 107.163 141.856C107.223 141.758 107.267 141.684 107.317 141.611C107.368 141.53 107.435 141.432 107.506 141.335C107.647 141.137 107.781 140.962 107.922 140.797C107.986 140.72 108.057 140.636 108.134 140.549C108.194 140.478 108.255 140.411 108.319 140.344L108.376 140.28C108.517 140.129 108.655 139.988 108.799 139.847L108.856 139.759L108.967 139.685C109.381 139.285 109.844 138.876 110.352 138.466C110.563 138.294 110.782 138.123 111.007 137.948C111.124 137.857 111.239 137.773 111.353 137.686C111.47 137.595 111.591 137.508 111.716 137.421L111.759 137.39C111.83 137.34 111.901 137.286 111.974 137.236C112.035 137.192 112.092 137.148 112.149 137.108C112.371 136.95 112.599 136.789 112.831 136.634C113.026 136.5 113.238 136.356 113.453 136.214L113.591 136.124C113.88 135.932 114.169 135.747 114.464 135.559L114.562 135.495C114.783 135.354 115.009 135.213 115.24 135.072L115.64 134.827C115.67 134.807 115.704 134.786 115.738 134.766C115.993 134.612 116.248 134.457 116.507 134.306C116.796 134.135 117.098 133.96 117.397 133.788C117.69 133.62 117.985 133.452 118.285 133.284L118.738 133.032C118.819 132.985 118.909 132.935 119 132.885L119.131 132.811C122.091 131.178 125.505 129.464 129.275 127.714L129.319 127.693C129.349 127.68 129.379 127.663 129.413 127.65L129.544 127.593L129.806 127.559C129.957 127.539 130.085 127.525 130.192 127.509C130.622 127.455 131.036 127.613 131.311 127.929C131.583 128.244 131.684 128.671 131.573 129.078C131.52 129.276 131.446 129.548 131.352 129.898L131.271 130.193C128.422 140.569 114.743 190.122 104.529 222.832C103.05 227.569 101.532 232.636 100.016 237.888L98.8503 241.923L98.8402 241.913ZM110.227 141.261C110.096 141.389 109.975 141.516 109.858 141.641L109.807 141.695C109.753 141.752 109.703 141.809 109.653 141.866C109.589 141.94 109.525 142.014 109.465 142.084C109.354 142.215 109.249 142.346 109.145 142.494C109.098 142.561 109.048 142.632 109.004 142.703C108.957 142.773 108.924 142.83 108.89 142.884C108.682 143.23 108.557 143.549 108.514 143.821C107.573 149.97 111.03 159.361 111.064 159.456L111.363 160.259L110.617 160.682C105.315 163.692 97.7952 169.062 97.6844 171.585C97.6676 171.988 97.6138 172.701 97.5399 173.688C97.2207 177.895 96.4781 187.747 96.5957 199.947C96.7066 211.932 97.6071 223.087 99.2703 233.181C100.386 229.387 101.501 225.711 102.59 222.217C112.7 189.837 126.214 140.918 129.231 129.941C125.865 131.524 122.79 133.08 120.099 134.561L119.266 135.025C118.973 135.193 118.681 135.358 118.392 135.526C118.1 135.694 117.811 135.862 117.525 136.03C117.266 136.184 117.011 136.335 116.762 136.487L116.289 136.779C116.06 136.917 115.845 137.054 115.633 137.189L115.536 137.253C115.25 137.434 114.972 137.616 114.699 137.794L114.568 137.881C114.363 138.019 114.158 138.156 113.957 138.294C113.728 138.449 113.513 138.597 113.308 138.744L113.278 138.765C113.241 138.788 113.208 138.815 113.171 138.845L113.137 138.869C113.07 138.916 113.006 138.963 112.942 139.007L112.892 139.044C112.777 139.128 112.67 139.205 112.562 139.285C112.448 139.373 112.341 139.453 112.233 139.534C112.025 139.695 111.817 139.86 111.618 140.021C111.161 140.394 110.741 140.764 110.372 141.12L110.284 141.207C110.278 141.214 110.271 141.221 110.264 141.228L110.234 141.258L110.227 141.261ZM77.5412 174.629C77.353 174.629 77.1648 174.579 76.9968 174.468C76.5298 174.166 76.3954 173.544 76.6945 173.074C85.2053 159.879 93.4205 137.138 93.5045 136.91C93.6927 136.386 94.2706 136.114 94.7948 136.302C95.3189 136.49 95.5911 137.068 95.4029 137.592C95.3189 137.824 87.0265 160.776 78.3913 174.166C78.1997 174.465 77.8738 174.626 77.5445 174.626L77.5412 174.629ZM81.2607 244.554C80.9314 244.554 80.6088 244.393 80.414 244.094C74.2316 234.575 68.7245 219.838 68.6674 219.69C68.4725 219.169 68.738 218.588 69.2621 218.393C69.7829 218.198 70.3642 218.464 70.5591 218.988C70.6128 219.132 76.0426 233.664 82.104 242.995C82.4064 243.462 82.2754 244.087 81.8084 244.39C81.6404 244.5 81.4488 244.551 81.2607 244.551V244.554ZM69.6116 238.604C69.1748 238.604 68.7749 238.318 68.6439 237.878L64.4304 223.534C64.2725 223 64.5783 222.439 65.1125 222.284C65.6468 222.13 66.2079 222.432 66.3624 222.966L70.5759 237.31C70.7338 237.844 70.428 238.405 69.8938 238.56C69.7997 238.587 69.7023 238.6 69.6082 238.6L69.6116 238.604ZM69.6116 280.006C69.4704 280.006 69.326 279.975 69.1916 279.912L39.4589 266.22C38.9549 265.988 38.7332 265.39 38.965 264.882C39.1968 264.375 39.7949 264.153 40.3023 264.388L70.0349 278.08C70.5389 278.312 70.7607 278.91 70.5288 279.418C70.3575 279.787 69.9946 280.006 69.6116 280.006ZM48.0706 248.59C47.3986 248.59 46.7501 248.529 46.1252 248.405C42.5098 247.696 40.0805 245.011 39.6269 241.221C38.8071 234.373 51.8573 230.429 53.3458 230.002L53.8599 229.854L54.2698 230.197C58.574 233.792 60.6202 237.169 60.348 240.233C60.1364 242.619 58.5336 244.685 55.5802 246.375C53.0367 247.83 50.436 248.59 48.074 248.59H48.0706ZM53.3861 232.095C49.5053 233.298 41.1255 236.803 41.6261 240.983C41.9756 243.902 43.7564 245.888 46.5149 246.429C48.8669 246.893 51.733 246.254 54.5789 244.628C56.9242 243.288 58.1909 241.749 58.3421 240.059C58.5404 237.811 56.8301 235.066 53.3895 232.095H53.3861Z" fill="#2E3192"/>
<path d="M103.477 109.63L84.248 103.471L84.3724 102.625C84.3959 102.477 86.5732 87.7868 86.7546 83.9698C86.7916 83.1432 86.7781 82.0311 86.7613 80.8517V80.7442C86.7109 77.2464 86.7344 74.2056 87.4837 72.4316L87.5509 72.3005L88.0247 71.521L88.0919 71.4471C88.6933 70.7885 89.5132 70.5634 90.3968 70.8188C93.6863 71.773 96.4986 81.0231 97.4461 84.504L113.85 92.8234L103.477 109.623V109.63ZM86.4925 102.073L102.59 107.228L110.984 93.6332L95.7325 85.8984L95.6183 85.4616C94.0928 79.716 91.4485 73.2245 89.8391 72.7575C89.7249 72.7239 89.6812 72.7272 89.6408 72.7541L89.3216 73.2783C88.7 74.8373 88.7471 78.2309 88.7807 80.7173V80.8248C88.7975 82.0344 88.8143 83.1768 88.774 84.0639C88.6093 87.4844 86.9696 98.8378 86.4959 102.073H86.4925Z" fill="#2E3192"/>
<path d="M89.2777 73.3488L87.4868 72.4349C87.6582 72.0317 87.8564 71.7091 88.095 71.447L89.6977 72.6533L89.2743 73.3488H89.2777ZM96.9519 99.4896C96.8948 99.4896 96.8343 99.4829 96.7739 99.4728C96.2262 99.3753 95.8599 98.8512 95.9574 98.3035C95.9708 98.2195 97.3887 89.9808 94.9292 83.1331C94.7411 82.6089 95.0132 82.031 95.5374 81.8429C96.0615 81.6547 96.6395 81.9269 96.8276 82.451C99.4753 89.8128 98.0103 98.3001 97.9465 98.6563C97.8591 99.1435 97.4358 99.4862 96.9553 99.4862L96.9519 99.4896Z" fill="#2E3192"/>
<path d="M151.202 240.942L151.582 237.045C153.013 222.314 154.693 208.656 156.578 196.452C162.445 158.437 166.927 139.262 168.583 132.784L168.664 132.478C169.037 131.027 169.235 130.344 169.245 130.314L169.366 129.894L171.127 129L171.604 129.83C186.183 155.198 185.236 157.258 184.879 158.034C184.187 159.536 181.435 162.154 176.705 165.809C175.928 166.411 175.236 166.928 174.729 167.308C175.465 168.158 176.688 169.586 178.059 171.286C183.875 178.487 186.721 183.416 186.516 185.932C186.452 186.712 185.803 188.456 181.479 195.455C174.729 206.385 162.492 224.468 153.416 237.713L151.202 240.946V240.942ZM170.458 133.584C168.751 140.317 164.333 159.408 158.571 196.758C156.86 207.836 155.318 220.12 153.978 233.322C162.73 220.51 173.57 204.419 179.766 194.393C184.039 187.475 184.476 186.04 184.506 185.764C184.658 183.889 181.661 178.95 176.49 172.549C174.309 169.848 172.511 167.835 172.494 167.819L171.749 166.985L172.656 166.33C172.656 166.33 173.882 165.443 175.471 164.217C179.631 161.001 182.443 158.404 183.025 157.241C183.169 155.81 179.436 147.625 170.764 132.418C170.697 132.673 170.623 132.962 170.539 133.284L170.458 133.59V133.584Z" fill="#2E3192"/>
<path d="M277.814 53.5585C279.017 53.9818 279.639 55.2889 279.199 56.475C274.871 68.1342 254.298 123.467 252.967 125.214C251.482 127.169 210.846 161.643 210.846 161.643C210.846 161.643 210.782 162.17 210.675 163.155C209.845 170.738 206.307 205.182 207.624 230.425C209.112 258.949 212.829 302.467 212.829 302.467L200.212 301.799L148.407 299.047C148.407 299.047 148.481 296.678 148.673 292.491C148.804 289.555 148.992 285.728 149.244 281.198C149.876 269.905 150.927 254.241 152.59 237.142C161.229 224.532 173.785 205.998 180.626 194.924C183.556 190.179 185.438 186.803 185.515 185.848C185.747 182.996 180.942 176.454 177.28 171.914C175.055 169.159 173.251 167.143 173.251 167.143C173.251 167.143 174.471 166.263 176.094 165.006C178.993 162.765 183.173 159.331 183.969 157.608C184.951 155.471 174.904 137.582 170.738 130.328C176.285 127.512 224.461 103.014 228.197 99.7854C231.406 97.0167 244.604 66.7801 251.223 51.0351C251.909 49.4022 252.48 48.0447 252.9 47.0367C253.367 45.9178 254.644 45.3601 255.803 45.7666L277.821 53.5518L277.814 53.5585Z" fill="#2E3192"/>
<path d="M210.675 164.166H210.668C210.11 164.163 209.663 163.706 209.667 163.151C209.667 162.923 209.835 140.199 209.835 135.972C209.835 135.415 210.285 134.964 210.843 134.964C211.4 134.964 211.851 135.415 211.851 135.972C211.851 140.206 211.683 162.936 211.683 163.165C211.679 163.719 211.229 164.166 210.675 164.166Z" fill="#2E3192"/>
<path d="M210.846 154.338C210.675 154.338 210.504 154.295 210.342 154.204C209.862 153.925 209.694 153.31 209.973 152.826L215.547 143.17C215.826 142.689 216.441 142.521 216.925 142.8C217.405 143.079 217.573 143.694 217.294 144.178L211.72 153.834C211.532 154.157 211.196 154.338 210.846 154.338ZM241.815 110.94C241.607 110.94 241.395 110.877 241.214 110.742L227.589 100.595C227.142 100.262 227.052 99.6307 227.384 99.1838C227.717 98.7369 228.349 98.6462 228.795 98.9789L242.42 109.126C242.867 109.459 242.958 110.09 242.625 110.537C242.427 110.803 242.125 110.944 241.815 110.944V110.94ZM187.928 287.707C187.645 287.707 187.363 287.586 187.162 287.354C174.259 272.311 156.74 240.082 156.565 239.76C156.3 239.269 156.481 238.657 156.972 238.392C157.463 238.127 158.074 238.308 158.34 238.799C158.514 239.121 175.933 271.162 188.694 286.044C189.057 286.467 189.006 287.102 188.586 287.465C188.395 287.629 188.163 287.707 187.931 287.707H187.928ZM161.538 266.314C161.028 266.314 160.591 265.927 160.537 265.406L159.052 250.861C158.995 250.307 159.398 249.813 159.952 249.756C160.503 249.702 161.001 250.102 161.058 250.656L162.543 265.201C162.6 265.756 162.197 266.25 161.642 266.307C161.609 266.31 161.572 266.314 161.538 266.314ZM203.165 206.291H185.519C184.961 206.291 184.511 205.84 184.511 205.283C184.511 204.725 184.961 204.275 185.519 204.275H203.165C203.723 204.275 204.173 204.725 204.173 205.283C204.173 205.84 203.723 206.291 203.165 206.291Z" fill="#2E3192"/>
<path d="M151.629 144.124C150.168 147.195 148.511 150.347 147.661 150.884C147.456 151.015 147.181 151.116 146.858 151.187C144.479 151.704 139.386 150.599 137.749 148.502C137.679 148.411 137.615 148.307 137.554 148.189C136.869 146.869 136.839 143.963 137.013 141.167C138.781 140.609 141.697 137.824 143.76 135.667L147.644 136.443C148.804 139.027 150.416 142.414 151.626 144.124H151.629Z" fill="#F9FCFF"/>
<path d="M142.396 217.936C142.396 240.438 143.394 267.123 143.511 273.312C143.525 273.964 143.243 274.586 142.742 275.013L128.082 286.668C127.054 287.545 125.478 287.317 124.749 286.188L116.158 272.866C115.882 272.439 115.765 271.935 115.825 271.431C116.796 263.259 124.05 196.466 129.702 173.621C133.032 160.158 135.773 152.416 137.558 148.189C137.615 148.307 137.682 148.411 137.752 148.502C139.389 150.602 144.483 151.704 146.861 151.187C145.665 163.115 142.399 197.561 142.399 217.933L142.396 217.936Z" fill="#F9FCFF"/>
<path d="M202.442 311.909H50.2612L56.5646 284.266L83.8545 293.274C84.1267 292.028 84.6307 289.76 85.3329 286.699L85.5648 285.697L86.5627 285.949C98.3092 288.903 121.991 293.553 148.592 291.487L149.727 291.399L149.677 292.538C149.559 295.126 149.485 297.027 149.448 298.093L201.112 300.838L202.446 311.912L202.442 311.909ZM52.7879 309.893H200.168L199.307 302.76L147.362 299.998L147.392 299.013C147.392 298.993 147.456 297.024 147.607 293.58C121.92 295.401 99.0686 291.094 87.0667 288.15C86.1124 292.323 85.5916 294.766 85.5849 294.793L85.3497 295.892L58.0329 286.877L52.7846 309.893H52.7879Z" fill="#2E3192"/>
<path d="M277.31 54.7345L276.423 54.3447C274.75 53.6089 272.757 52.9604 270.647 52.2716C269.421 51.8718 268.154 51.4585 266.877 51.0083C265.258 50.4337 263.625 49.7247 262.187 49.1031C260.356 48.3068 258.625 47.5575 257.469 47.3257L256.687 47.1678L256.663 46.3681C256.653 46.0455 256.643 45.6491 256.633 45.1921C256.562 42.447 256.428 37.3364 256.125 34.7828C255.712 31.2851 255.386 28.5198 257.896 26.3425C259.647 24.8238 262.214 24.0947 263.259 23.846C263.877 22.8347 265.906 19.5519 268.305 15.9567L268.447 15.7484L268.668 15.6275C269.938 14.9454 271.887 14.3003 273.947 15.1067C276.356 16.0441 276.917 18.3255 277.028 19.7233C278.755 19.0983 280.281 19.2529 281.342 20.2004C282.743 21.4503 283.133 22.9455 283.227 23.8763C284.259 24.1383 285.791 24.6961 286.624 25.8116C287.454 26.9204 287.639 28.4526 287.673 29.3665C288.687 29.8302 290.408 30.9054 291.019 33.039C291.869 35.9991 288.385 40.1487 286.846 41.7951C286.523 42.1412 286.06 42.531 285.472 43.0283C284.01 44.2614 281.799 46.1262 280.358 48.5756C279.793 49.5366 279.141 50.9276 278.51 52.2716C278.248 52.8294 277.992 53.3771 277.75 53.871L277.327 54.7412L277.31 54.7345ZM258.656 45.5449C259.879 45.9044 261.344 46.5395 262.99 47.2518C264.468 47.8935 265.997 48.5555 267.553 49.1065C268.803 49.55 270.059 49.9599 271.272 50.3531C273.073 50.9411 274.79 51.4988 276.336 52.1171C276.447 51.8819 276.558 51.6433 276.672 51.4014C277.324 50.0171 277.996 48.5857 278.607 47.5441C280.223 44.7956 282.592 42.7964 284.161 41.4759C284.679 41.0425 285.122 40.6662 285.364 40.4075C287.451 38.1731 289.504 35.0819 289.074 33.5833C288.576 31.8495 286.796 31.154 286.443 31.0331L286.402 31.0163C285.952 30.8382 285.657 30.4115 285.653 29.9276V29.9041V29.8806C285.687 29.0003 285.539 27.7167 285.005 27.0044C284.501 26.3257 283.173 25.8788 282.196 25.7007C281.621 25.5999 281.215 25.0959 281.235 24.5046C281.252 24.1115 281.215 22.7742 279.998 21.6889C279.047 20.8388 277.183 21.7964 276.635 22.1089C276.195 22.3609 275.644 22.3038 275.264 21.9611C274.888 21.6183 274.773 21.0774 274.985 20.6103C274.995 20.5902 275.012 20.5499 275.032 20.5062C275.062 19.9148 275.046 17.6804 273.214 16.9681C271.978 16.4843 270.731 16.8404 269.841 17.2772C267.059 21.4604 264.818 25.1497 264.794 25.1867C264.63 25.4655 264.344 25.6638 264.015 25.7276C263.716 25.7881 260.893 26.3996 259.22 27.8511C257.664 29.2019 257.685 30.7575 258.131 34.5342C258.444 37.1785 258.578 42.3495 258.652 45.1283C258.656 45.2694 258.659 45.4071 258.662 45.5382L258.656 45.5449ZM263.071 24.1484L263.064 24.1619C263.064 24.1619 263.064 24.1551 263.071 24.1484ZM263.625 23.762C263.625 23.762 263.608 23.7654 263.598 23.7687C263.608 23.7687 263.615 23.7654 263.625 23.762ZM275.637 20.3684C275.637 20.3684 275.63 20.3684 275.63 20.3718C275.63 20.3718 275.637 20.3718 275.637 20.3684Z" fill="#2E3192"/>
<path d="M267.556 45.7464C267.093 45.7464 266.676 45.4272 266.572 44.9568C265.517 40.1822 263.511 35.7806 262.698 34.1107C262.463 33.6268 262.52 33.0657 262.852 32.6424C263.182 32.2156 263.719 32.0208 264.247 32.1316C264.979 32.2862 266.286 32.4945 268.376 32.6356C270.379 32.77 272.65 32.9246 273.352 32.2761C273.477 32.1619 273.641 31.9435 273.648 31.3756C273.567 30.3475 268.763 27.6024 263.565 25.6166C263.044 25.4184 262.785 24.8337 262.983 24.3163C263.182 23.7955 263.763 23.5334 264.284 23.735C264.395 23.7787 267.056 24.7968 269.757 26.1576C275.019 28.8086 275.677 30.3542 275.664 31.4059C275.651 32.4038 275.331 33.1968 274.716 33.7612C273.376 34.9977 270.994 34.8364 268.238 34.6516C266.878 34.5609 265.819 34.4366 265.023 34.319C266.021 36.4963 267.623 40.367 268.541 44.5267C268.662 45.071 268.316 45.6086 267.775 45.7296C267.701 45.7464 267.627 45.7531 267.556 45.7531V45.7464Z" fill="#2E3192"/>
<path d="M271.43 29.2154C271.249 29.2154 271.064 29.165 270.899 29.0642C270.426 28.7685 270.281 28.1469 270.577 27.6765L275.042 20.5063C275.338 20.0325 275.956 19.8914 276.43 20.1837C276.904 20.4794 277.048 21.101 276.752 21.5714L272.287 28.7416C272.096 29.0474 271.766 29.2154 271.43 29.2154ZM276.759 37.8103C276.074 37.8103 275.439 37.6423 274.854 37.3063C272.983 36.2277 272.485 33.8555 272.435 33.5901C272.331 33.0424 272.69 32.5149 273.238 32.4107C273.786 32.3066 274.31 32.6661 274.414 33.2104C274.508 33.6875 274.955 35.0416 275.865 35.5624C276.383 35.8581 277.008 35.8682 277.784 35.596C281.322 34.3562 285.562 29.4405 285.606 29.3935C285.969 28.9701 286.604 28.9231 287.027 29.2826C287.451 29.6455 287.501 30.2805 287.138 30.7039C286.95 30.9223 282.501 36.0799 278.453 37.4978C277.861 37.7061 277.297 37.8069 276.759 37.8069V37.8103ZM274.565 31.8698C274.273 31.8698 273.984 31.7455 273.786 31.5035C273.433 31.0735 273.493 30.4384 273.923 30.0856L281.594 23.7756C282.024 23.4228 282.659 23.4832 283.012 23.9133C283.365 24.3434 283.304 24.9784 282.874 25.3312L275.204 31.6413C275.015 31.7959 274.79 31.8698 274.565 31.8698Z" fill="#2E3192"/>
<path d="M280.674 41.4759C279.706 41.4759 279.037 41.1063 278.617 40.7501C277.048 39.4195 277.099 36.8021 277.112 36.5064C277.132 35.9487 277.609 35.522 278.157 35.5354C278.711 35.5556 279.145 36.0226 279.128 36.577C279.111 37.0743 279.225 38.6199 279.924 39.2079C280.106 39.3624 280.428 39.5472 281.141 39.4027C284.013 38.8114 285.67 35.8243 285.687 35.7941C285.952 35.3069 286.564 35.1255 287.051 35.3875C287.541 35.653 287.723 36.2611 287.461 36.7517C287.377 36.9096 285.357 40.5956 281.544 41.3784C281.231 41.4423 280.939 41.4725 280.674 41.4725V41.4759Z" fill="#2E3192"/>
<path d="M171.433 83.3582L166.229 99.1603C166.229 99.1603 167.179 101.593 169.501 100.998C171.823 100.403 172.058 94.6646 173.56 93.7977C175.062 92.9308 178.728 91.224 180.764 91.728C182.8 92.232 183.022 90.347 183.909 88.284C184.793 86.2209 186.802 81.2952 186.802 81.2952L171.433 83.3548V83.3582Z" fill="#2E3192"/>
<path d="M152.033 121.763C144.725 121.763 137.612 118.863 137.276 118.726C136.762 118.514 136.516 117.923 136.728 117.409C136.94 116.894 137.531 116.649 138.045 116.861C138.132 116.898 146.969 120.493 154.627 119.603C161.901 118.756 164.875 110.188 164.905 110.101C165.083 109.573 165.654 109.291 166.182 109.469C166.709 109.647 166.991 110.218 166.817 110.742C166.682 111.146 163.416 120.607 154.858 121.605C153.921 121.716 152.974 121.763 152.029 121.763H152.033Z" fill="#2E3192"/>
<path d="M137.662 118.803C137.554 118.803 137.447 118.786 137.339 118.749C136.923 118.608 127.159 115.255 126.513 108.918C126.023 104.103 130.895 85.6966 133.008 78.0089C133.156 77.4713 133.711 77.1588 134.248 77.3033C134.786 77.4511 135.102 78.0055 134.954 78.5431C133.328 84.4567 128.052 104.113 128.519 108.713C129.033 113.759 137.894 116.807 137.985 116.837C138.512 117.015 138.794 117.586 138.616 118.114C138.475 118.534 138.082 118.799 137.662 118.799V118.803ZM164.76 125.062C164.683 125.062 164.602 125.052 164.525 125.035C163.984 124.904 163.652 124.36 163.779 123.819C165.479 116.743 168.335 112.476 170.627 109.049C171.578 107.631 172.398 106.404 172.945 105.238C173.456 104.153 174.645 103.542 175.838 103.753C177.297 104.012 179.998 104.308 181.732 103.377C183.056 102.668 184.242 100.551 184.497 98.4579C184.638 97.2953 184.608 95.1113 182.837 93.5153C180.136 91.0827 175.475 93.7673 174.111 94.6476C173.987 94.7283 173.9 94.8425 173.856 94.9836C173.547 95.9479 172.895 97.8799 172.005 99.9732C171.628 100.854 170.926 101.536 170.029 101.885C169.122 102.241 168.134 102.214 167.25 101.818C165.577 101.065 164.754 99.1332 165.372 97.423L167.865 90.5081C168.053 89.9839 168.631 89.7118 169.155 89.9033C169.679 90.0915 169.952 90.6694 169.76 91.1935L167.267 98.1084C167.001 98.8476 167.348 99.654 168.077 99.9833C168.466 100.158 168.897 100.168 169.293 100.014C169.683 99.8623 169.989 99.5667 170.15 99.1903C171.01 97.171 171.638 95.3062 171.937 94.3755C172.125 93.7942 172.509 93.2902 173.019 92.9609C174.689 91.8823 180.428 88.6332 184.191 92.0235C186.006 93.6598 186.829 96.0319 186.503 98.7065C186.167 101.482 184.598 104.136 182.689 105.161C180.536 106.317 177.589 106.115 175.492 105.746C175.193 105.692 174.897 105.84 174.773 106.105C174.162 107.406 173.301 108.689 172.307 110.178C170.103 113.47 167.358 117.573 165.741 124.3C165.631 124.763 165.217 125.072 164.764 125.072L164.76 125.062Z" fill="#2E3192"/>
<path d="M157.059 93.2217C157.389 92.0115 157.107 90.8804 156.429 90.6953C155.75 90.5102 154.932 91.3412 154.602 92.5514C154.272 93.7616 154.554 94.8927 155.233 95.0778C155.911 95.263 156.729 94.4319 157.059 93.2217Z" fill="#2E3192"/>
<path d="M140.261 88.8148C140.591 87.6045 140.309 86.4734 139.63 86.2883C138.952 86.1032 138.134 86.9342 137.804 88.1444C137.474 89.3546 137.756 90.4858 138.435 90.6709C139.113 90.856 139.931 90.025 140.261 88.8148Z" fill="#2E3192"/>
<path d="M143.431 102.493C143.35 102.493 143.27 102.483 143.186 102.463C140.309 101.744 138.438 100.104 137.581 99.1939C137.205 98.794 137.03 98.2564 137.104 97.7188C137.178 97.1846 137.494 96.7142 137.968 96.4353C140.387 94.9972 143.659 91.3819 142.141 87.7968C140.679 84.3494 136.408 85.3238 136.23 85.3675C135.689 85.4952 135.145 85.1659 135.014 84.6249C134.883 84.084 135.212 83.543 135.753 83.4086C137.857 82.8912 142.288 82.9785 143.999 87.0072C145.759 91.1601 142.9 95.7196 139.248 98.0145C140.024 98.7873 141.502 99.9633 143.676 100.508C144.217 100.642 144.543 101.19 144.409 101.731C144.294 102.188 143.884 102.493 143.431 102.493ZM159.529 92.9443C159.209 92.9443 158.894 92.7931 158.699 92.5075C158.591 92.3529 156.152 88.919 152.56 89.8665C152.022 90.011 151.471 89.6884 151.327 89.1508C151.182 88.6132 151.505 88.0622 152.043 87.9177C157.025 86.6006 160.224 91.1702 160.359 91.3651C160.674 91.8254 160.557 92.4504 160.096 92.7662C159.922 92.8872 159.724 92.9443 159.529 92.9443Z" fill="#2E3192"/>
<path d="M143.448 112.043C142.927 112.043 142.487 111.643 142.443 111.115C142.131 107.201 144.99 105.208 146.542 104.698C147.07 104.526 147.641 104.812 147.812 105.343C147.984 105.87 147.698 106.438 147.174 106.613C147.043 106.657 144.19 107.675 144.452 110.954C144.496 111.508 144.083 111.996 143.528 112.039C143.501 112.039 143.475 112.039 143.448 112.039V112.043Z" fill="#2E3192"/>
<path d="M182.303 92.4369C182.175 92.4369 182.044 92.4134 181.92 92.3597C181.406 92.148 181.16 91.56 181.372 91.0425L184.248 84.0437C184.46 83.5296 185.048 83.2843 185.565 83.496C186.079 83.7077 186.325 84.2957 186.113 84.8131L183.237 91.812C183.075 92.2017 182.699 92.4369 182.303 92.4369Z" fill="#2E3192"/>
<path d="M175.906 102.493C175.492 102.493 175.106 102.238 174.958 101.825C174.642 100.948 174.679 99.9094 175.059 98.9048C175.808 96.9224 177.156 95.6456 178.758 95.4037C180.536 95.1383 182.229 95.9816 183.335 96.741C183.795 97.0568 183.912 97.6818 183.597 98.1421C183.281 98.6024 182.656 98.72 182.196 98.4042C181.534 97.9506 180.243 97.2181 179.057 97.3962C177.801 97.5843 177.122 99.1434 176.944 99.6138C176.732 100.172 176.702 100.716 176.853 101.143C177.041 101.667 176.769 102.245 176.245 102.433C176.134 102.473 176.016 102.493 175.906 102.493Z" fill="#2E3192"/>
<path d="M179.641 101.99C179.557 101.99 179.473 101.979 179.386 101.956C178.848 101.815 178.526 101.267 178.664 100.73C178.744 100.407 178.879 99.3654 178.455 98.8143C178.368 98.7001 178.103 98.354 177.172 98.3338C176.614 98.3204 176.174 97.8601 176.187 97.3057C176.201 96.7479 176.661 96.3011 177.215 96.3212C178.795 96.3548 179.638 97.0402 180.065 97.6081C181.147 99.0394 180.673 101.018 180.616 101.24C180.498 101.694 180.088 101.996 179.641 101.996V101.99Z" fill="#2E3192"/>
<path d="M133.734 79.1851C133.734 79.1851 126.345 73.0699 127.205 65.0295C128.066 56.9923 131.715 54.8453 133.586 56.8983C135.454 58.9512 136.281 59.9626 136.281 59.9626C136.281 59.9626 136.294 50.3059 140.904 44.7619C145.514 39.2179 149.328 38.9055 150.282 40.9416C151.236 42.9778 155.658 48.0749 159.122 49.6272C162.586 51.1795 172.293 48.7099 180.183 53.0477C188.072 57.3855 187.625 65.9803 187.625 65.9803C187.625 65.9803 193.149 69.1085 193.162 75.1464C193.176 81.1843 184.238 87.5112 184.238 87.5112C184.238 87.5112 169.961 88.6536 159.552 86.4058C149.143 84.1579 141.996 78.0058 141.996 78.0058C141.996 78.0058 147.083 82.0109 144.822 82.9114C142.561 83.8119 136.499 82.1319 133.734 79.1851ZM134.903 125.123C134.853 125.123 134.802 125.12 134.752 125.113C134.201 125.029 133.821 124.515 133.905 123.964L134.967 116.965C135.051 116.414 135.562 116.034 136.116 116.118C136.667 116.202 137.047 116.716 136.963 117.267L135.901 124.266C135.827 124.767 135.397 125.123 134.907 125.123H134.903Z" fill="#2E3192"/>
<path d="M88.4142 72.828C87.6986 74.5214 87.7288 77.8713 87.7691 80.734L84.604 79.128L88.4142 72.828ZM145.968 106.085C144.026 106.761 143.622 109.059 143.622 109.059L112.411 93.2332L96.5858 85.2062C96.5858 85.2062 93.2728 72.7104 90.1144 71.7931C89.5768 71.6385 89.1602 71.7763 88.8342 72.1291L89.5533 70.9363L145.964 106.085H145.968Z" fill="#2E3192"/>
<path d="M84.604 79.1281C84.604 79.1281 68.7448 68.1275 69.9846 55.9038C71.2245 43.6801 85.5952 40.3772 89.0627 45.7566C92.5302 51.1359 89.0627 57.1268 84.7249 56.7572C80.3872 56.391 79.275 52.2347 80.8845 51.0116C82.4939 49.7886 83.6094 50.7663 84.1067 51.9894C84.6006 53.2124 88.0446 51.2569 86.5091 48.5655C84.9736 45.8775 75.8075 45.9985 77.4169 55.5342C79.0264 65.0699 89.5566 70.9364 89.5566 70.9364L84.604 79.1248V79.1281Z" fill="#ED1C24"/>
<path d="M112.142 86.1973L94.731 75.3479L94.8956 74.6456C96.3942 68.2213 97.755 67.9021 98.2018 67.7979C98.7462 67.6703 99.2804 67.8685 99.6702 68.3389C100.245 69.0344 100.648 70.4927 100.93 72.0685C101.444 70.8085 102.11 69.7199 102.96 69.2629C103.571 68.9336 104.257 68.9135 104.892 69.2091C106.172 69.8005 106.753 71.4939 106.968 73.4461C107.378 72.7808 107.845 72.2533 108.366 71.9711C108.944 71.6619 109.562 71.6317 110.153 71.8837C112.996 73.1 112.596 81.1573 112.294 84.5643L112.149 86.1973H112.142ZM106.706 80.4349L110.389 82.7298C110.436 81.7352 110.476 80.4047 110.439 79.0539C110.308 74.2055 109.364 73.7451 109.354 73.7418C108.628 73.8863 107.381 77.0749 106.706 80.4383V80.4349ZM101.622 77.2664L104.808 79.2522C105.244 75.4957 105.07 71.5141 104.045 71.037C103.974 71.0034 103.968 71.0101 103.917 71.037C103.081 71.4906 102.103 74.4978 101.622 77.2664ZM97.0292 74.4037L99.3778 75.8687C99.1796 73.641 98.8335 71.4167 98.4337 70.2743C98.0103 71.1243 97.4593 72.7237 97.0292 74.4037ZM143.784 152.648C140.256 152.648 137.82 150.464 136.906 149.049C136.603 148.582 136.738 147.957 137.205 147.655C137.672 147.353 138.293 147.487 138.596 147.951C138.7 148.109 141.136 151.697 145.84 150.323C146.374 150.168 146.935 150.474 147.09 151.008C147.244 151.543 146.939 152.104 146.404 152.258C145.474 152.53 144.597 152.648 143.78 152.648H143.784ZM136.926 197.326C136.892 197.326 136.855 197.326 136.822 197.319L125.532 196.157C124.978 196.1 124.574 195.606 124.632 195.051C124.689 194.497 125.179 194.094 125.737 194.151L137.027 195.313C137.581 195.37 137.984 195.864 137.927 196.419C137.873 196.936 137.437 197.323 136.926 197.323V197.326ZM152.815 146.23C152.486 146.23 152.288 146.126 152.11 146.029C151.703 145.81 151.29 145.39 150.806 144.705C149.801 143.29 148.43 140.646 146.73 136.856C146.401 136.12 146.109 135.448 145.87 134.894C145.487 135.314 145.017 135.818 144.493 136.365C141.314 139.692 138.902 141.631 137.322 142.128C136.775 142.303 136.277 142.323 135.847 142.188C133.24 141.375 129.541 134.931 128.825 133.647L128.647 133.328L129.362 129.535V129.172L129.561 128.994C130.3 127.552 132.434 123.661 134.147 123.124C134.698 122.952 135.122 123.083 135.384 123.221C136.62 123.886 144.079 129.128 146.334 130.721C147.584 129.938 150.698 128.029 153.995 126.296C162.045 122.065 164.3 122.442 165.368 123.241C168.453 125.556 170.452 132.454 170.536 132.747L170.711 133.362L170.227 133.785C169.797 134.155 166.057 137.367 162.19 140.391C155.923 145.29 153.796 146.227 152.819 146.227L152.815 146.23ZM147.097 132.626L147.107 132.653C147.107 132.653 147.722 134.141 148.568 136.033C150.194 139.652 151.535 142.249 152.452 143.542C152.698 143.888 152.862 144.073 152.96 144.164C154.536 143.818 161.138 138.916 168.406 132.693C167.72 130.546 166.06 126.289 164.155 124.861C164.105 124.82 162.794 123.957 154.939 128.08C151.377 129.951 148.024 132.038 147.097 132.626ZM130.76 132.985C132.403 135.868 135.132 139.856 136.439 140.266C136.432 140.266 136.516 140.27 136.711 140.209C137.91 139.83 140.215 137.924 143.034 134.974C144.167 133.795 145.047 132.797 145.322 132.481C142.446 130.452 136.13 126.03 134.624 125.116C133.909 125.583 132.37 127.932 131.335 129.955L130.764 132.985H130.76Z" fill="#2E3192"/>
<path d="M103.726 56.3404C102.983 56.3404 102.318 55.9036 102.029 55.1913L92.3352 31.2647C92.1336 30.7674 92.1604 30.2097 92.4091 29.7359C92.6577 29.2588 93.1046 28.9127 93.6321 28.7917L103.151 26.6111C103.702 26.4834 104.27 26.6111 104.713 26.9639C105.15 27.31 105.406 27.8308 105.409 28.3852L105.584 54.4924C105.59 55.3828 104.979 56.1287 104.102 56.3034C103.974 56.3303 103.85 56.3404 103.726 56.3404ZM94.284 30.7103L103.561 53.6087L103.393 28.6237L94.284 30.7103Z" fill="#2E3192"/>
<path d="M218.114 234.663C218.194 234.424 218.379 234.239 218.618 234.155C220.939 233.356 233.035 229.811 232.931 242.969C232.814 257.521 235.387 263.327 245.185 261.559C253.911 259.987 256.922 274.472 257.476 277.661C257.54 278.02 257.345 278.376 257.009 278.524L247.255 282.865C246.832 283.053 246.338 282.858 246.166 282.432C245.047 279.663 241.052 270.48 237.329 270.578C232.945 270.692 222.505 264.405 226.856 252.145C230.485 241.927 220.597 240.748 217.203 240.637C216.662 240.62 216.289 240.092 216.461 239.582L218.114 234.653V234.663Z" fill="#0F9500"/>
<path d="M37.0262 94.752C36.502 94.752 36.0081 94.4967 35.7057 94.0599C35.3731 93.5794 35.3361 92.9578 35.6016 92.437C40.3593 83.1634 46.0108 72.1123 46.283 71.4806C46.4073 71.1883 46.6559 70.9699 46.9651 70.8792C47.5968 70.6978 48.0134 70.5768 58.9939 78.0259C64.6689 81.8765 70.9521 86.268 73.3881 87.9749C73.9358 88.3579 74.1811 89.0232 74.0164 89.6683C73.8484 90.3168 73.3108 90.7839 72.6388 90.8578L37.2043 94.7419C37.1438 94.7486 37.0867 94.752 37.0262 94.752ZM47.7244 73.1237C46.152 76.2787 40.6248 87.061 37.7587 92.6554L71.3049 88.9795C59.1484 80.4653 50.278 74.5046 47.7244 73.1237ZM48.1377 72.2736C48.1377 72.2736 48.1377 72.2736 48.1377 72.277C48.1377 72.277 48.1377 72.277 48.1377 72.2736ZM275.364 277.381C275.159 277.381 274.958 277.321 274.78 277.203C274.249 276.851 273.866 276.599 272.471 263.518C271.749 256.744 271.054 249.194 270.788 246.261C270.728 245.603 271.074 244.988 271.672 244.692C272.273 244.396 272.979 244.497 273.473 244.954L299.486 269.015C299.919 269.415 300.094 270.013 299.946 270.581C299.798 271.149 299.348 271.589 298.774 271.727C288.529 274.183 276.339 277.126 275.687 277.328C275.583 277.361 275.475 277.378 275.368 277.378L275.364 277.381ZM275.082 275.406C275.082 275.406 275.075 275.406 275.072 275.409C275.072 275.409 275.079 275.409 275.082 275.406ZM272.895 247.168C274.212 261.593 275.401 272.311 275.996 275.167C279.443 274.3 291.351 271.438 297.527 269.956L272.895 247.168ZM254.791 234.041C253.323 234.041 252.026 233.732 251.125 232.935C250.124 232.052 249.704 230.725 249.869 228.977C246.67 229.196 244.204 228.416 242.944 226.733C241.798 225.204 241.707 223.114 242.668 220.503C241.539 220.235 240.508 219.754 239.654 219.112C239.113 218.706 238.65 218.249 238.27 217.755C236.644 218.289 235.186 218.202 234.063 217.755C231.641 216.787 230.31 214.163 230.589 210.907C230.636 210.353 231.12 209.943 231.681 209.99C232.235 210.037 232.649 210.524 232.598 211.082C232.393 213.454 233.223 215.252 234.813 215.887C235.478 216.152 236.328 216.216 237.302 215.961C236.651 214.056 236.926 211.838 238.189 209.691C240.098 206.455 242.531 204.527 244.526 204.624C245.471 204.678 246.227 205.189 246.603 206.032C247.359 207.725 246.452 210.373 244.113 213.296C242.786 214.953 241.449 216.112 240.168 216.878C240.377 217.096 240.609 217.305 240.867 217.5C241.6 218.051 242.507 218.44 243.498 218.622C243.498 218.618 243.502 218.612 243.505 218.608C246.489 212.732 249.849 209.254 252.527 209.254C252.567 209.254 252.611 209.254 252.651 209.254C253.615 209.294 254.371 209.815 254.724 210.685C255.416 212.386 254.405 214.976 252.08 217.449C249.889 219.778 247.241 220.745 244.792 220.745C244.772 220.745 244.755 220.745 244.735 220.745C244.049 222.425 243.653 224.31 244.557 225.517C245.434 226.689 247.564 227.19 250.275 226.908C250.376 226.558 250.494 226.195 250.628 225.819C254.065 216.256 257.624 216.24 258.991 216.676C261.058 217.335 262.086 220.201 261.286 223.06C260.53 225.755 256.044 227.932 252.002 228.688C251.975 228.692 251.952 228.698 251.925 228.702C251.747 229.811 251.818 230.849 252.456 231.413C254.566 233.278 261.975 230.627 266.148 228.514C266.645 228.262 267.25 228.46 267.502 228.957C267.754 229.454 267.556 230.059 267.059 230.311C266.121 230.788 259.542 234.027 254.788 234.027L254.791 234.041ZM258.111 218.568C257.032 218.568 254.808 220.171 252.53 226.511C252.53 226.518 252.527 226.525 252.523 226.531C256.216 225.658 258.988 223.826 259.351 222.529C259.882 220.631 259.28 218.894 258.383 218.608C258.302 218.581 258.212 218.568 258.111 218.568ZM252.53 211.273C251.354 211.273 248.666 213.246 245.746 218.676C247.406 218.454 249.133 217.647 250.615 216.075C252.715 213.844 253.108 212.056 252.863 211.455C252.822 211.354 252.779 211.284 252.57 211.273C252.557 211.273 252.543 211.273 252.53 211.273ZM244.362 206.637C243.525 206.637 241.701 207.705 239.926 210.712C238.999 212.288 238.747 213.827 239.154 215.154C240.219 214.509 241.365 213.505 242.537 212.04C244.842 209.16 245 207.389 244.762 206.855C244.704 206.727 244.63 206.65 244.412 206.637C244.395 206.637 244.379 206.637 244.362 206.637ZM58.0665 66.3634C57.5088 66.3634 57.0585 65.9131 57.0585 65.3554C57.0585 65.2008 56.9779 53.9078 52.4049 48.0346C52.3008 50.2051 51.5985 51.6566 50.3116 52.3656C48.2385 53.5114 45.5371 52.2077 43.6992 50.605C42.0158 49.1366 40.319 46.7141 41.0884 44.7115C41.4782 43.6968 42.6139 42.5107 45.8865 42.5544C47.3884 42.5813 48.719 42.8904 49.9017 43.4213C49.0248 39.4901 47.2238 36.577 44.5392 34.7491C39.6067 31.3925 33.2328 32.7802 33.1689 32.7936C32.6246 32.9146 32.087 32.5752 31.9627 32.0342C31.8384 31.4933 32.1777 30.9523 32.722 30.828C33.0144 30.7608 39.9897 29.2286 45.658 33.0725C49.1659 35.4514 51.36 39.3389 52.1798 44.6208C52.1932 44.7082 52.2067 44.7955 52.2201 44.8795C58.9804 50.5411 59.0779 64.6162 59.0779 65.3554C59.0779 65.9131 58.6276 66.3634 58.0699 66.3634H58.0665ZM45.6748 44.567C44.1864 44.567 43.1817 44.8862 42.97 45.4339C42.7046 46.1194 43.4035 47.675 45.023 49.0862C46.6324 50.4907 48.4065 51.1123 49.3372 50.6016C50.2243 50.1144 50.5704 48.4646 50.3251 46.0152C49.0785 45.1349 47.6035 44.6006 45.8529 44.5704C45.7924 44.5704 45.732 44.5704 45.6748 44.5704V44.567Z" fill="#2E3192"/>
<path d="M272.462 133.97C255.013 133.97 240.868 147.927 240.868 165.144C240.868 182.361 255.013 196.318 272.462 196.318C289.91 196.318 304.056 182.361 304.056 165.144C304.056 147.927 289.91 133.97 272.462 133.97ZM290.303 155.914L269.596 176.346C268.477 177.452 267.005 178.003 265.533 178.003C264.062 178.003 262.593 177.452 261.471 176.346L254.617 169.583C253.501 168.481 253.501 166.696 254.617 165.598C255.732 164.499 257.54 164.499 258.656 165.598L265.51 172.361L286.261 151.929C287.377 150.83 289.184 150.83 290.3 151.929C291.416 153.031 291.416 154.815 290.3 155.914H290.303Z" fill="#0F9500"/>
</svg>
