<svg width="32" height="32" viewBox="0 0 32 32" fill="none" xmlns="http://www.w3.org/2000/svg">
<path d="M15.8697 -0.000445877L-0.000488281 15.998L16.1292 31.9991L31.9994 16.0006L15.8697 -0.000445877Z" fill="#86181A"/>
<path fill-rule="evenodd" clip-rule="evenodd" d="M23.0369 8.17447L23.0721 14.7666C23.0721 15.715 22.896 16.0638 22.5789 16.7326C22.4034 17.0997 23.6528 17.1744 24.6364 16.8904L24.6541 19.59C23.0299 19.6548 21.2718 19.7471 20.2247 17.204C17.4279 17.7733 15.4845 15.918 15.4204 14.0513C15.3922 13.2276 15.4726 12.2157 16.7698 10.998C15.6987 10.7866 13.9851 10.8571 12.599 11.9529C10.891 13.3023 11.0143 15.2288 11.0333 15.8715C11.1179 18.6964 13.4615 19.9014 15.0033 19.9134C17.7634 19.9359 18.7527 20.926 19.0698 21.4496C19.0916 21.4853 19.106 21.5251 19.1119 21.5666C19.1178 21.608 19.1152 21.6503 19.1043 21.6907C19.0933 21.7312 19.0743 21.7689 19.0482 21.8017C19.0222 21.8345 18.9897 21.8617 18.9528 21.8815C17.7373 22.5249 16.0151 22.8624 11.7224 22.9385C10.5682 22.9674 9.41334 22.9347 8.26264 22.8406C8.26264 22.8406 8.22599 19.9973 8.22599 19.9895C8.22599 17.6951 7.96387 15.0005 8.46135 13.5313C9.11032 11.6139 10.5851 9.97488 12.926 8.79246C14.7975 7.84258 18.5645 8.1787 23.0369 8.17447Z" fill="#FFFBFB"/>
<path d="M19.1339 14.5793C19.6425 14.5793 20.0548 14.1669 20.0548 13.6583C20.0548 13.1496 19.6425 12.7373 19.1339 12.7373C18.6252 12.7373 18.2129 13.1496 18.2129 13.6583C18.2129 14.1669 18.6252 14.5793 19.1339 14.5793Z" fill="#86181A"/>
</svg>
